<?xml version="1.0" encoding="utf-8"?>
<!-- Generator: Adobe Illustrator 27.9.0, SVG Export Plug-In . SVG Version: 6.00 Build 0)  -->
<svg version="1.1" id="Layer_1" xmlns="http://www.w3.org/2000/svg" xmlns:xlink="http://www.w3.org/1999/xlink" x="0px" y="0px"
	 viewBox="0 0 448 512" style="enable-background:new 0 0 448 512;" xml:space="preserve">
<style type="text/css">
	.st0{fill:#FFFFFF;}
</style>
<path class="st0" d="M68,94.1c0-10.8,10-19.5,22.3-19.5h267.4c12.3,0,22.3,8.7,22.3,19.5s-10,19.5-22.3,19.5H90.3
	C78,113.6,68,104.9,68,94.1z M68,191.5c0-10.8,10-19.5,22.3-19.5h267.4c12.3,0,22.3,8.7,22.3,19.5c0,10.8-10,19.5-22.3,19.5H90.3
	C78,211,68,202.3,68,191.5z M380,288.9c0,10.8-10,19.5-22.3,19.5H90.3c-12.3,0-22.3-8.7-22.3-19.5s10-19.5,22.3-19.5h267.4
	C370,269.4,380,278.1,380,288.9z"/>
</svg>
