<?xml version="1.0" encoding="UTF-8"?>
<svg xmlns="http://www.w3.org/2000/svg" xmlns:xlink="http://www.w3.org/1999/xlink" viewBox="0 0 4710 6310">
  <defs>
    <style>
      .cls-1 {
        fill: url(#radial-gradient-31);
      }

      .cls-1, .cls-2, .cls-3, .cls-4, .cls-5, .cls-6, .cls-7, .cls-8, .cls-9, .cls-10, .cls-11, .cls-12, .cls-13, .cls-14, .cls-15, .cls-16, .cls-17, .cls-18, .cls-19, .cls-20, .cls-21, .cls-22, .cls-23, .cls-24, .cls-25, .cls-26, .cls-27, .cls-28, .cls-29, .cls-30, .cls-31, .cls-32, .cls-33, .cls-34, .cls-35, .cls-36, .cls-37 {
        stroke-width: 0px;
      }

      .cls-1, .cls-2, .cls-3, .cls-4, .cls-5, .cls-6, .cls-27, .cls-28, .cls-29, .cls-30 {
        opacity: .5;
      }

      .cls-2 {
        fill: url(#radial-gradient-30);
      }

      .cls-3 {
        fill: url(#radial-gradient-33);
      }

      .cls-4 {
        fill: url(#radial-gradient-23);
      }

      .cls-5 {
        fill: url(#radial-gradient-27);
      }

      .cls-6 {
        fill: url(#radial-gradient-25);
      }

      .cls-7 {
        fill: url(#radial-gradient-34);
      }

      .cls-8 {
        fill: url(#radial-gradient-24);
      }

      .cls-9 {
        fill: url(#radial-gradient-28);
      }

      .cls-10 {
        fill: url(#radial-gradient-29);
      }

      .cls-11 {
        fill: url(#radial-gradient-26);
      }

      .cls-12 {
        fill: url(#radial-gradient-22);
      }

      .cls-13 {
        fill: url(#radial-gradient-32);
      }

      .cls-14 {
        fill: url(#radial-gradient-20);
      }

      .cls-15 {
        fill: url(#radial-gradient-21);
      }

      .cls-16 {
        fill: url(#radial-gradient-14);
      }

      .cls-17 {
        fill: url(#radial-gradient-13);
      }

      .cls-18 {
        fill: url(#radial-gradient-12);
      }

      .cls-19 {
        fill: url(#radial-gradient-15);
      }

      .cls-20 {
        fill: url(#radial-gradient-16);
      }

      .cls-21 {
        fill: url(#radial-gradient-11);
      }

      .cls-22 {
        fill: url(#radial-gradient-19);
      }

      .cls-23 {
        fill: url(#radial-gradient-18);
      }

      .cls-24 {
        fill: url(#radial-gradient-17);
      }

      .cls-25 {
        fill: url(#radial-gradient-10);
      }

      .cls-26 {
        fill: #2a3344;
      }

      .cls-27 {
        fill: url(#radial-gradient);
      }

      .cls-28 {
        fill: url(#radial-gradient-5);
      }

      .cls-29 {
        fill: url(#radial-gradient-7);
      }

      .cls-30 {
        fill: url(#radial-gradient-9);
      }

      .cls-31 {
        fill: url(#radial-gradient-2);
      }

      .cls-32 {
        fill: url(#radial-gradient-3);
      }

      .cls-33 {
        fill: url(#radial-gradient-4);
      }

      .cls-34 {
        fill: url(#radial-gradient-6);
      }

      .cls-35 {
        fill: url(#radial-gradient-8);
      }

      .cls-36 {
        fill: url(#radial-gradient-35);
        opacity: .7;
      }

      .cls-37 {
        fill: #fff;
      }
    </style>
    <radialGradient id="radial-gradient" cx="3955" cy="5555" fx="3955" fy="5555" r="406.77" gradientTransform="translate(0 -196.8) scale(1 1.04)" gradientUnits="userSpaceOnUse">
      <stop offset="0" stop-color="#fff" stop-opacity="0"/>
      <stop offset=".35" stop-color="rgba(255, 255, 255, 0)" stop-opacity="0"/>
      <stop offset=".49" stop-color="rgba(255, 255, 255, .03)" stop-opacity=".03"/>
      <stop offset=".58" stop-color="rgba(255, 255, 255, .08)" stop-opacity=".08"/>
      <stop offset=".66" stop-color="rgba(255, 255, 255, .15)" stop-opacity=".15"/>
      <stop offset=".73" stop-color="rgba(255, 255, 255, .24)" stop-opacity=".24"/>
      <stop offset=".8" stop-color="rgba(255, 255, 255, .35)" stop-opacity=".35"/>
      <stop offset=".85" stop-color="rgba(255, 255, 255, .48)" stop-opacity=".48"/>
      <stop offset=".9" stop-color="rgba(255, 255, 255, .63)" stop-opacity=".63"/>
      <stop offset=".95" stop-color="rgba(255, 255, 255, .8)" stop-opacity=".8"/>
      <stop offset="1" stop-color="rgba(255, 255, 255, .98)" stop-opacity=".98"/>
      <stop offset="1" stop-color="#fff"/>
    </radialGradient>
    <radialGradient id="radial-gradient-2" cx="3955" cy="5710.5" fx="3955" fy="5710.5" r="455.27" gradientTransform="translate(0 999.16) scale(1 .83)" gradientUnits="userSpaceOnUse">
      <stop offset="0" stop-color="#fff" stop-opacity="0"/>
      <stop offset=".13" stop-color="rgba(255, 255, 255, .02)" stop-opacity=".02"/>
      <stop offset=".26" stop-color="rgba(255, 255, 255, .06)" stop-opacity=".06"/>
      <stop offset=".38" stop-color="rgba(255, 255, 255, .14)" stop-opacity=".14"/>
      <stop offset=".5" stop-color="rgba(255, 255, 255, .25)" stop-opacity=".25"/>
      <stop offset=".63" stop-color="rgba(255, 255, 255, .38)" stop-opacity=".38"/>
      <stop offset=".75" stop-color="rgba(255, 255, 255, .56)" stop-opacity=".56"/>
      <stop offset=".87" stop-color="rgba(255, 255, 255, .76)" stop-opacity=".76"/>
      <stop offset=".99" stop-color="rgba(255, 255, 255, .98)" stop-opacity=".98"/>
      <stop offset="1" stop-color="#fff"/>
    </radialGradient>
    <radialGradient id="radial-gradient-3" cx="3955" cy="5469.14" fx="3955" fy="5469.14" r="401.22" gradientTransform="translate(0 1106.58) scale(1 .8)" xlink:href="#radial-gradient-2"/>
    <radialGradient id="radial-gradient-4" cx="2355" cy="5617.52" fx="2355" fy="5617.52" r="426.43" gradientTransform="translate(25.87 2199.39) rotate(.43) scale(1 .61)" xlink:href="#radial-gradient-2"/>
    <radialGradient id="radial-gradient-5" cx="2355" cy="5555" fx="2355" fy="5555" r="382.94" gradientTransform="translate(0 427.72) scale(1 .92)" gradientUnits="userSpaceOnUse">
      <stop offset="0" stop-color="#fff" stop-opacity="0"/>
      <stop offset=".29" stop-color="rgba(255, 255, 255, 0)" stop-opacity="0"/>
      <stop offset=".43" stop-color="rgba(255, 255, 255, .04)" stop-opacity=".04"/>
      <stop offset=".54" stop-color="rgba(255, 255, 255, .09)" stop-opacity=".09"/>
      <stop offset=".62" stop-color="rgba(255, 255, 255, .16)" stop-opacity=".16"/>
      <stop offset=".7" stop-color="rgba(255, 255, 255, .25)" stop-opacity=".25"/>
      <stop offset=".77" stop-color="rgba(255, 255, 255, .37)" stop-opacity=".37"/>
      <stop offset=".84" stop-color="rgba(255, 255, 255, .51)" stop-opacity=".51"/>
      <stop offset=".9" stop-color="rgba(255, 255, 255, .67)" stop-opacity=".67"/>
      <stop offset=".96" stop-color="rgba(255, 255, 255, .84)" stop-opacity=".84"/>
      <stop offset="1" stop-color="#fff"/>
    </radialGradient>
    <radialGradient id="radial-gradient-6" cx="2355" cy="5396.73" fx="2355" fy="5396.73" r="454.95" gradientTransform="translate(0 3530.64) scale(1 .35)" xlink:href="#radial-gradient-2"/>
    <radialGradient id="radial-gradient-7" cx="755" cy="5555" fx="755" fy="5555" r="569.74" gradientTransform="translate(0 520.01) scale(1 .91)" xlink:href="#radial-gradient-5"/>
    <radialGradient id="radial-gradient-8" cx="755" cy="5555" fx="755" fy="5555" r="514.26" gradientTransform="translate(0 520.01) scale(1 .91)" xlink:href="#radial-gradient-2"/>
    <radialGradient id="radial-gradient-9" cx="3955" cy="3954.5" fx="3955" fy="3954.5" r="466.97" gradientTransform="matrix(1,0,0,1,0,0)" xlink:href="#radial-gradient-5"/>
    <radialGradient id="radial-gradient-10" cx="3954.88" cy="3984" fx="3954.88" fy="3984" r="586.03" gradientTransform="translate(652.33 697.08) scale(.84 .83)" xlink:href="#radial-gradient-2"/>
    <radialGradient id="radial-gradient-11" cx="3735.64" cy="3857.51" fx="3735.64" fy="3857.51" r="58.61" gradientTransform="matrix(1,0,0,1,0,0)" xlink:href="#radial-gradient-2"/>
    <radialGradient id="radial-gradient-12" cx="3844.72" cy="3857.51" fx="3844.72" fy="3857.51" r="58.61" gradientTransform="matrix(1,0,0,1,0,0)" xlink:href="#radial-gradient-2"/>
    <radialGradient id="radial-gradient-13" cx="3953.8" cy="3857.51" fx="3953.8" fy="3857.51" r="58.61" gradientTransform="matrix(1,0,0,1,0,0)" xlink:href="#radial-gradient-2"/>
    <radialGradient id="radial-gradient-14" cx="4062.88" cy="3857.51" fx="4062.88" fy="3857.51" r="58.61" gradientTransform="matrix(1,0,0,1,0,0)" xlink:href="#radial-gradient-2"/>
    <radialGradient id="radial-gradient-15" cx="4171.96" cy="3857.51" fx="4171.96" fy="3857.51" r="58.61" gradientTransform="matrix(1,0,0,1,0,0)" xlink:href="#radial-gradient-2"/>
    <radialGradient id="radial-gradient-16" cx="3735.64" cy="3962.93" fx="3735.64" fy="3962.93" r="58.61" gradientTransform="matrix(1,0,0,1,0,0)" xlink:href="#radial-gradient-2"/>
    <radialGradient id="radial-gradient-17" cx="3844.72" cy="3962.93" fx="3844.72" fy="3962.93" r="58.61" gradientTransform="matrix(1,0,0,1,0,0)" xlink:href="#radial-gradient-2"/>
    <radialGradient id="radial-gradient-18" cx="3953.8" cy="3962.93" fx="3953.8" fy="3962.93" r="58.61" gradientTransform="matrix(1,0,0,1,0,0)" xlink:href="#radial-gradient-2"/>
    <radialGradient id="radial-gradient-19" cx="4062.88" cy="3962.93" fx="4062.88" fy="3962.93" r="58.61" gradientTransform="matrix(1,0,0,1,0,0)" xlink:href="#radial-gradient-2"/>
    <radialGradient id="radial-gradient-20" cx="4171.96" cy="3962.93" fx="4171.96" fy="3962.93" r="58.61" gradientTransform="matrix(1,0,0,1,0,0)" xlink:href="#radial-gradient-2"/>
    <radialGradient id="radial-gradient-21" cx="3735.64" cy="4068.34" fx="3735.64" fy="4068.34" r="58.61" gradientTransform="matrix(1,0,0,1,0,0)" xlink:href="#radial-gradient-2"/>
    <radialGradient id="radial-gradient-22" cx="3844.72" cy="4068.34" fx="3844.72" fy="4068.34" r="58.61" gradientTransform="matrix(1,0,0,1,0,0)" xlink:href="#radial-gradient-2"/>
    <radialGradient id="radial-gradient-23" cx="2355" cy="3955" fx="2355" fy="3955" r="545.7" gradientTransform="translate(-908 6310) rotate(-90) scale(1 .83)" xlink:href="#radial-gradient-5"/>
    <radialGradient id="radial-gradient-24" cx="2355" cy="3955" fx="2355" fy="3955" r="489.63" gradientTransform="translate(0 692) scale(1 .83)" xlink:href="#radial-gradient-2"/>
    <radialGradient id="radial-gradient-25" cx="755" cy="3955" fx="755" fy="3955" r="513.88" gradientTransform="matrix(1,0,0,1,0,0)" xlink:href="#radial-gradient-5"/>
    <radialGradient id="radial-gradient-26" cx="755" cy="3955" fx="755" fy="3955" r="468.06" gradientTransform="matrix(1,0,0,1,0,0)" xlink:href="#radial-gradient-2"/>
    <radialGradient id="radial-gradient-27" cx="3955" cy="2355" fx="3955" fy="2355" r="510.91" gradientTransform="translate(0 121.06) scale(1 .95)" xlink:href="#radial-gradient-5"/>
    <radialGradient id="radial-gradient-28" cx="3955" cy="2355" fx="3955" fy="2355" r="461.51" gradientTransform="translate(0 121.06) scale(1 .95)" xlink:href="#radial-gradient-2"/>
    <radialGradient id="radial-gradient-29" cx="2355" cy="2310.17" fx="2355" fy="2310.17" r="333.91" gradientTransform="translate(0 -497.03) scale(1 1.22)" xlink:href="#radial-gradient-2"/>
    <radialGradient id="radial-gradient-30" cx="2355" cy="2355" fx="2355" fy="2355" r="336.99" gradientTransform="matrix(1,0,0,1,0,0)" xlink:href="#radial-gradient-5"/>
    <radialGradient id="radial-gradient-31" cx="755" cy="2355.01" fx="755" fy="2355.01" r="423.3" gradientTransform="translate(-725.71 1490.96) rotate(-33.61) scale(1 .65)" xlink:href="#radial-gradient-5"/>
    <radialGradient id="radial-gradient-32" cx="822.42" cy="2302.62" fx="822.42" fy="2302.62" r="306.31" gradientTransform="translate(0 -893.23) scale(1 1.39)" xlink:href="#radial-gradient-2"/>
    <radialGradient id="radial-gradient-33" cx="3955" cy="755" fx="3955" fy="755" r="294.41" gradientTransform="translate(2524.58 4710) rotate(-90) scale(1 1.89)" xlink:href="#radial-gradient-2"/>
    <radialGradient id="radial-gradient-34" cx="3955" cy="755" fx="3955" fy="755" r="263.57" gradientTransform="translate(0 -675.42) scale(1 1.89)" xlink:href="#radial-gradient-2"/>
    <radialGradient id="radial-gradient-35" cx="3955" cy="731.78" fx="3955" fy="731.78" r="212.04" gradientTransform="translate(2568.58 4686.78) rotate(-90) scale(1 1.89)" xlink:href="#radial-gradient-2"/>
  </defs>
  <g id="Icon_12" data-name="Icon 12">
    <g id="Graphic_Element" data-name="Graphic Element">
      <g>
        <g>
          <path class="cls-27" d="M4308.06,5537.31c0-.25-.01-.5-.02-.74-.02-.57-.06-1.13-.1-1.7,0-.1-.02-.2-.03-.29-.4-4.25-1.52-8.37-3.26-12.19-.03-.07-.07-.15-.1-.22-.25-.54-.51-1.07-.79-1.6-.09-.18-.19-.36-.28-.53-.24-.45-.49-.89-.75-1.33-.16-.27-.32-.53-.48-.79-.05-.08-.09-.16-.14-.23l-20.7-22.25-69.16-70.23v-116.27c0-36.4-29.61-66.01-66.01-66.01h-113.49l-35.64-36.19c-11.2-11.37-26.15-17.63-42.11-17.63s-30.91,6.26-42.11,17.63l-35.63,36.18h-113.49c-36.4,0-66.01,29.61-66.01,66.01v116.27l-69.16,70.23-20.7,22.24c-.28.45-.56.9-.83,1.36-.13.23-.26.46-.39.69-.21.39-.42.79-.62,1.18-.18.35-.35.71-.52,1.06-.12.25-.23.51-.34.77-.22.49-.43.98-.62,1.48-.02.06-.04.11-.06.17-1.52,3.91-2.4,8.09-2.55,12.38,0,.13,0,.26-.01.39,0,.31-.03.62-.03.94v285.69c0,50.59,38.89,92.26,88.34,96.72l30.85.4h470.66l31.5-.77c47.77-6.06,84.84-46.95,84.84-96.34v-285.69c0-.26-.02-.52-.03-.79Z"/>
          <path class="cls-37" d="M3634.9,5544.08v-6.08c0-3.26,2.64-5.9,5.9-5.9h628.4c3.26,0,5.9,2.64,5.9,5.9v6.08h-640.2Z"/>
          <rect class="cls-37" x="3639.9" y="5537.11" width="630.2" height="1.98"/>
        </g>
        <path class="cls-31" d="M3955,5710.5l-315.1-172.41v285.69c0,32.66,26.47,59.13,59.13,59.13h511.94c32.65,0,59.13-26.47,59.13-59.13v-285.69l-315.1,172.41Z"/>
        <g>
          <path class="cls-37" d="M3699.03,5888.9c-35.91,0-65.12-29.21-65.12-65.12v-285.69c0-2.11,1.13-4.09,2.95-5.16.87-.53,1.95-.83,3.04-.83,1,0,1.99.25,2.87.73l312.23,170.84,312.23-170.84c.89-.48,1.88-.73,2.88-.73,1.08,0,2.14.29,3.06.84,1.8,1.06,2.93,3.04,2.93,5.15v285.69c0,35.91-29.21,65.12-65.12,65.12h-511.94ZM3645.89,5823.78c0,29.3,23.84,53.14,53.14,53.14h511.94c29.3,0,53.14-23.84,53.14-53.14v-275.59l-306.24,167.56c-.89.48-1.88.74-2.88.74s-1.99-.25-2.87-.73l-306.25-167.56v275.59Z"/>
          <path class="cls-37" d="M4210.97,5883.9h-511.94c-33.15,0-60.12-26.97-60.12-60.12v-285.69c0-.35.18-.67.48-.85.3-.18.67-.19.98-.02l314.62,172.15,314.63-172.15c.31-.17.68-.16.98.02.3.18.48.5.48.85v285.69c0,33.15-26.97,60.12-60.12,60.12ZM3640.89,5539.76v284.02c0,32.06,26.08,58.14,58.14,58.14h511.94c32.06,0,58.14-26.08,58.14-58.14v-284.02l-313.64,171.61c-.3.16-.65.16-.95,0l-313.63-171.61Z"/>
        </g>
        <g>
          <path class="cls-32" d="M3636.48,5541.93c-2.4-1.31-2.88-4.56-.96-6.51l300.87-305.53c4.95-5.02,11.55-7.79,18.6-7.79,0,0,0,0,0,0,7.05,0,13.66,2.77,18.6,7.79l300.87,305.53c1.92,1.95,1.44,5.2-.96,6.51l-318.51,174.28-318.52-174.28Z"/>
          <g>
            <path class="cls-37" d="M3955,5716.49c-.99,0-1.98-.25-2.86-.73l-315.11-172.42c-1.62-.89-2.76-2.51-3.05-4.35-.27-1.89.35-3.77,1.64-5.09l300.07-304.72c5.13-5.21,11.99-8.08,19.3-8.08s14.18,2.87,19.31,8.08l300.06,304.71c1.31,1.34,1.92,3.22,1.66,5.05-.29,1.89-1.43,3.51-3.05,4.4l-315.1,172.41c-.89.48-1.88.74-2.88.74ZM3955,5703.67l305.27-167.03-294.5-299.06c-2.86-2.91-6.69-4.51-10.77-4.51s-7.91,1.6-10.77,4.51l-294.5,299.06,305.27,167.03Z"/>
            <path class="cls-37" d="M3955,5711.49c-.16,0-.33-.04-.48-.12l-315.1-172.41c-.27-.15-.46-.42-.5-.72-.04-.31.06-.62.27-.84l300.06-304.71c4.19-4.25,9.78-6.59,15.74-6.59s11.56,2.34,15.75,6.59l300.06,304.71c.22.22.32.53.27.84-.05.31-.23.57-.5.72l-315.1,172.41c-.15.08-.31.12-.48.12ZM3641.52,5537.85l313.48,171.52,313.48-171.52-299.14-303.78c-3.81-3.87-8.9-6-14.34-6s-10.52,2.13-14.33,6l-299.14,303.78Z"/>
          </g>
        </g>
        <path class="cls-37" d="M3763.77,5274.91c-18.78,0-34.01,15.23-34.01,34.01v278.34l225.24,123.24,225.24-123.24v-278.34c0-18.78-15.23-34.01-34.01-34.01h-382.46Z"/>
        <g>
          <polygon class="cls-37" points="3691.35 5884.29 3832.14 5637.46 3842.54 5643.39 3702.88 5888.25 3691.35 5884.29"/>
          <rect class="cls-37" x="3629.87" y="5762.85" width="274.16" height="1.98" transform="translate(-3106.2 6178.13) rotate(-60.28)"/>
        </g>
        <g>
          <polygon class="cls-37" points="4070.31 5643.39 4080.71 5637.46 4221.5 5884.29 4210.12 5888.51 4070.31 5643.39"/>
          <rect class="cls-37" x="4144.91" y="5626.76" width="1.98" height="274.16" transform="translate(-2311.1 2811.31) rotate(-29.7)"/>
        </g>
      </g>
    </g>
  </g>
  <g id="Icon_11" data-name="Icon 11">
    <g id="Graphic_Element-2" data-name="Graphic Element">
      <g>
        <g>
          <path class="cls-33" d="M2570.18,5529.35h-22.26c-22.41,0-41.44-16.41-44.75-38.57l-2.39-16.06c-3.3-22.17-22.33-38.57-44.75-38.57h-202.08c-22.41,0-41.44,16.41-44.74,38.57l-2.39,16.06c-3.3,22.17-22.33,38.57-44.74,38.57h-22.26c-22,0-40.81,15.82-44.57,37.49l-31.11,179.07c-4.81,27.67,16.49,52.98,44.57,52.98h492.59c28.08,0,49.38-25.32,44.57-52.98l-31.11-179.07c-3.77-21.67-22.57-37.49-44.57-37.49Z"/>
          <g>
            <path class="cls-37" d="M2108.71,5804.93c-15.17,0-29.47-6.66-39.24-18.27-9.77-11.61-13.88-26.84-11.28-41.79l31.11-179.07c4.28-24.62,25.53-42.5,50.52-42.5h22.26c19.27,0,35.94-14.37,38.77-33.42l2.39-16.06c3.71-24.92,25.52-43.72,50.72-43.72h202.08c25.2,0,47,18.8,50.72,43.72l2.39,16.06c2.84,19.06,19.51,33.42,38.77,33.42h22.26c25,0,46.24,17.87,50.52,42.5l31.11,179.07c2.6,14.95-1.51,30.18-11.28,41.79-9.77,11.61-24.07,18.27-39.24,18.27h-492.59ZM2139.82,5535.38c-19.11,0-35.35,13.67-38.62,32.49l-31.11,179.07c-1.99,11.43,1.16,23.07,8.62,31.95,7.47,8.88,18.4,13.97,30,13.97h492.59c11.6,0,22.53-5.09,30-13.97,7.47-8.88,10.61-20.52,8.63-31.95l-31.11-179.07c-3.27-18.83-19.51-32.49-38.62-32.49h-22.26c-25.2,0-47-18.8-50.72-43.72l-2.39-16.06c-2.84-19.06-19.51-33.42-38.77-33.42h-202.08c-19.27,0-35.93,14.37-38.77,33.42l-2.39,16.06c-3.71,24.93-25.52,43.72-50.72,43.72h-22.26Z"/>
            <path class="cls-37" d="M2601.29,5799.93h-492.59c-13.69,0-26.6-6.01-35.41-16.49-8.81-10.48-12.52-24.22-10.18-37.71l31.11-179.07c3.86-22.22,23.04-38.35,45.59-38.35h22.26c21.72,0,40.52-16.2,43.72-37.69l2.39-16.06c3.35-22.5,23.03-39.46,45.77-39.46h202.08c22.74,0,42.42,16.96,45.77,39.46l2.39,16.06c3.2,21.48,22,37.69,43.72,37.69h22.26c22.56,0,41.73,16.13,45.59,38.35l31.11,179.07c2.34,13.49-1.37,27.24-10.18,37.71-8.81,10.48-21.72,16.49-35.41,16.49ZM2139.82,5530.38c-21.55,0-39.86,15.41-43.55,36.64l-31.11,179.07c-2.24,12.88,1.31,26.01,9.72,36.02s20.75,15.75,33.82,15.75h492.59c13.08,0,25.41-5.74,33.82-15.75,8.42-10.01,11.96-23.14,9.73-36.02l-31.11-179.07c-3.69-21.23-22-36.64-43.55-36.64h-22.26c-22.74,0-42.42-16.96-45.77-39.46l-2.39-16.06c-3.2-21.48-22-37.69-43.72-37.69h-202.08c-21.72,0-40.52,16.2-43.72,37.69l-2.39,16.06c-3.35,22.5-23.03,39.46-45.77,39.46h-22.26Z"/>
          </g>
          <path class="cls-28" d="M2710.2,5450.42c-29.45-68.95-80.2-120.26-146.77-148.39-50.35-21.28-93.73-22.93-105.83-22.93-.67,0-1.18,0-1.52.01h-202.15c-.34,0-.85-.01-1.52-.01-12.1,0-55.48,1.65-105.82,22.93-66.57,28.13-117.33,79.44-146.77,148.39-6.07,14.21-4.61,30.4,3.92,43.31,8.53,12.92,22.87,20.64,38.35,20.64h49.34c-14.21,11.42-24.36,27.85-27.69,47l-31.11,179.07c-3.91,22.51,2.28,45.46,16.99,62.94,14.71,17.49,36.25,27.52,59.11,27.52h492.59c22.85,0,44.4-10.03,59.11-27.52s20.9-40.43,16.99-62.94l-31.11-179.07c-3.33-19.15-13.48-35.57-27.69-47h49.34c15.48,0,29.81-7.72,38.35-20.64,8.52-12.91,9.99-29.09,3.92-43.3Z"/>
          <path class="cls-34" d="M2680.77,5462.99c-66.66-156.08-224.37-151.88-224.37-151.88h-202.79s-157.71-4.21-224.37,151.88c-3.92,9.17,2.86,19.38,12.84,19.38h115.5c5.75,0,10.83-3.73,12.56-9.21l5.42-17.18c11.28-35.72,44.41-60,81.87-60h195.15c37.46,0,70.59,24.28,81.87,60l5.42,17.18c1.73,5.48,6.82,9.21,12.56,9.21h115.5c9.98,0,16.75-10.2,12.84-19.38Z"/>
          <g>
            <path class="cls-37" d="M2552.43,5488.4c-8.42,0-15.79-5.4-18.32-13.43l-5.42-17.17c-10.53-33.36-41.12-55.78-76.11-55.78h-195.15c-34.99,0-65.58,22.42-76.11,55.78l-5.42,17.17c-2.53,8.03-9.9,13.43-18.32,13.43h-115.5c-6.73,0-12.97-3.36-16.68-8.98-3.7-5.6-4.34-12.63-1.71-18.8,35.26-82.56,95.9-120.47,140.56-137.73,43.88-16.96,81.35-17.82,88.41-17.82.63,0,.99,0,1.07,0h202.63c.16,0,.51,0,1.05,0,7.06,0,44.48.86,88.37,17.82,44.66,17.26,105.3,55.17,140.56,137.73,2.63,6.17,1.99,13.19-1.71,18.8-3.72,5.62-9.95,8.98-16.68,8.98h-115.5ZM2452.58,5389.95c40.28,0,75.5,25.81,87.62,64.22l5.42,17.17c.94,2.98,3.68,4.99,6.81,4.99h115.5c2.66,0,5.13-1.33,6.61-3.56,1.46-2.21,1.72-4.98.68-7.41-33.59-78.66-91.27-114.75-133.73-131.18-41.93-16.22-77.33-17.04-84.01-17.04-.5,0-.79,0-.88,0h-.13s-.04,0-.04,0h-202.93s-.34,0-.87,0c-6.69,0-42.19.82-84.11,17.04-42.47,16.43-100.14,52.52-133.73,131.18-1.04,2.43-.78,5.19.68,7.4,1.47,2.23,3.94,3.56,6.61,3.56h115.5c3.13,0,5.86-2,6.81-4.99l5.43-17.18c12.13-38.41,47.34-64.22,87.63-64.22h195.15Z"/>
            <path class="cls-37" d="M2667.93,5483.4h-115.5c-6.23,0-11.68-3.99-13.55-9.93l-5.42-17.18c-11.19-35.45-43.7-59.27-80.88-59.27h-195.15c-37.18,0-69.68,23.82-80.88,59.27l-5.42,17.18c-1.87,5.94-7.32,9.93-13.55,9.93h-115.5c-5.05,0-9.72-2.52-12.51-6.74-2.77-4.2-3.25-9.46-1.28-14.08,34.58-80.96,94-118.12,137.76-135.03,47.41-18.32,87.2-17.48,87.59-17.48h202.76c.36-.01,40.16-.84,87.56,17.48,43.76,16.91,103.19,54.07,137.77,135.03h0c1.97,4.62,1.49,9.88-1.28,14.08-2.79,4.22-7.46,6.74-12.51,6.74ZM2257.42,5394.95h195.15c38.09,0,71.39,24.4,82.86,60.73l5.42,17.18c1.6,5.07,6.26,8.48,11.58,8.48h115.5c4.35,0,8.38-2.17,10.78-5.8,2.39-3.62,2.8-8.15,1.11-12.12-34.28-80.26-93.16-117.1-136.53-133.88-47.04-18.2-86.47-17.39-86.87-17.37h-202.81c-.42-.01-39.86-.83-86.89,17.37-43.36,16.78-102.25,53.62-136.53,133.88-1.7,3.97-1.29,8.51,1.1,12.12,2.4,3.64,6.43,5.81,10.78,5.81h115.5c5.32,0,9.97-3.41,11.57-8.48l5.43-17.18c11.47-36.32,44.77-60.73,82.86-60.73Z"/>
          </g>
        </g>
        <circle class="cls-37" cx="2354.68" cy="5626.76" r="116.34"/>
      </g>
    </g>
  </g>
  <g id="Icon_10" data-name="Icon 10">
    <g id="Graphic_Element-3" data-name="Graphic Element">
      <g>
        <path class="cls-29" d="M575.43,5918.71c-56.92,0-103.23-46.31-103.23-103.24v-520.95c0-56.92,46.31-103.23,103.23-103.23h281.28c25.85,0,50.15,10.07,68.43,28.34l84.31,84.31c18.28,18.28,28.34,42.58,28.34,68.43v443.1c0,56.92-46.31,103.24-103.23,103.24h-359.13Z"/>
        <path class="cls-35" d="M575.43,5886.71c-39.28,0-71.23-31.96-71.23-71.24v-520.95c0-39.28,31.96-71.23,71.23-71.23h281.28c17.3,0,33.57,6.74,45.8,18.97l84.31,84.31c12.23,12.23,18.97,28.5,18.97,45.8v443.1c0,39.28-31.96,71.24-71.23,71.24h-359.13Z"/>
        <g>
          <path class="cls-37" d="M575.43,5887.77c-39.86,0-72.29-32.43-72.29-72.29v-520.95c0-39.86,32.43-72.29,72.29-72.29h281.28c17.59,0,34.12,6.85,46.55,19.28l84.31,84.31c12.43,12.44,19.28,28.97,19.28,46.55v443.1c0,39.86-32.43,72.29-72.3,72.29h-359.13ZM575.43,5234.35c-33.18,0-60.17,26.99-60.17,60.17v520.95c0,33.18,26.99,60.17,60.17,60.17h359.13c33.18,0,60.17-26.99,60.17-60.17v-443.1c0-14.35-5.59-27.84-15.73-37.98l-84.31-84.31c-10.14-10.14-23.63-15.73-37.98-15.73h-281.28Z"/>
          <path class="cls-37" d="M934.57,5882.77h-359.13c-37.11,0-67.29-30.19-67.29-67.29v-520.95c0-37.11,30.19-67.29,67.29-67.29h281.28c16.25,0,31.53,6.33,43.02,17.82l84.31,84.31c11.49,11.49,17.82,26.77,17.82,43.02v443.1c0,37.11-30.19,67.29-67.3,67.29ZM575.43,5229.35c-35.94,0-65.17,29.24-65.17,65.17v520.95c0,35.94,29.24,65.17,65.17,65.17h359.13c35.94,0,65.17-29.24,65.17-65.17v-443.1c0-15.68-6.11-30.43-17.2-41.52l-84.31-84.31c-11.09-11.09-25.83-17.2-41.52-17.2h-281.28Z"/>
        </g>
        <g>
          <path class="cls-37" d="M892.66,5377.33c-22.58,0-40.95-18.37-40.95-40.95v-113.09h5c17.3,0,33.57,6.74,45.8,18.97l84.31,84.31c12.22,12.22,18.96,28.47,18.97,45.75v5s-113.14,0-113.14,0Z"/>
          <path class="cls-37" d="M898.98,5245.8c-11.21-11.21-26.41-17.51-42.27-17.51v108.09c0,19.85,16.09,35.95,35.95,35.95h108.14c-.01-15.84-6.31-31.02-17.51-42.22l-84.31-84.31Z"/>
        </g>
      </g>
    </g>
  </g>
  <g id="Icon_9" data-name="Icon 9">
    <g id="Graphic_Element-4" data-name="Graphic Element">
      <g>
        <path class="cls-30" d="M4215.46,3706.04h-39.52c-1.32-32.76-28.36-59-61.44-59s-60.12,26.24-61.44,59h-198.53c-1.32-32.76-28.36-59-61.44-59s-60.12,26.24-61.44,59h-37.12c-54.3,0-98.47,44.17-98.47,98.47v358.99c0,54.3,44.17,98.47,98.47,98.47h520.92c54.3,0,98.47-44.17,98.47-98.47v-358.99c0-54.3-44.17-98.47-98.47-98.47Z"/>
        <rect class="cls-25" x="3628.07" y="3738.04" width="653.86" height="491.93" rx="66.47" ry="66.47"/>
        <g>
          <path class="cls-37" d="M3694.35,4235.96c-39.85,0-72.27-32.42-72.27-72.27v-359.37c0-39.85,32.42-72.27,72.27-72.27h521.3c39.85,0,72.27,32.42,72.27,72.27v359.37c0,39.85-32.42,72.27-72.27,72.27h-521.3ZM3694.35,3744.03c-33.24,0-60.29,27.04-60.29,60.29v359.37c0,33.24,27.04,60.29,60.29,60.29h521.3c33.24,0,60.29-27.04,60.29-60.29v-359.37c0-33.24-27.04-60.29-60.29-60.29h-521.3Z"/>
          <path class="cls-37" d="M4215.65,4230.96h-521.3c-37.09,0-67.27-30.18-67.27-67.27v-359.37c0-37.09,30.18-67.27,67.27-67.27h521.3c37.09,0,67.27,30.18,67.27,67.27v359.37c0,37.09-30.18,67.27-67.27,67.27ZM3694.35,3739.03c-36,0-65.29,29.29-65.29,65.29v359.37c0,36,29.29,65.29,65.29,65.29h521.3c36,0,65.29-29.29,65.29-65.29v-359.37c0-36-29.29-65.29-65.29-65.29h-521.3Z"/>
        </g>
        <path class="cls-37" d="M3793.1,3679.04h0c16.28,0,29.5,13.22,29.5,29.5v29.5h-59v-29.5c0-16.28,13.22-29.5,29.5-29.5Z"/>
        <path class="cls-37" d="M4114.5,3679.04h0c16.28,0,29.5,13.22,29.5,29.5v29.5h-59v-29.5c0-16.28,13.22-29.5,29.5-29.5Z"/>
        <rect class="cls-21" x="3693.55" y="3815.42" width="84.19" height="84.19" rx="23.02" ry="23.02"/>
        <rect class="cls-18" x="3802.63" y="3815.42" width="84.19" height="84.19" rx="23.02" ry="23.02"/>
        <rect class="cls-17" x="3911.71" y="3815.42" width="84.19" height="84.19" rx="23.02" ry="23.02"/>
        <rect class="cls-16" x="4020.79" y="3815.42" width="84.19" height="84.19" rx="23.02" ry="23.02"/>
        <rect class="cls-19" x="4129.87" y="3815.42" width="84.19" height="84.19" rx="23.02" ry="23.02"/>
        <rect class="cls-20" x="3693.55" y="3920.83" width="84.19" height="84.19" rx="23.02" ry="23.02"/>
        <rect class="cls-24" x="3802.63" y="3920.83" width="84.19" height="84.19" rx="23.02" ry="23.02"/>
        <rect class="cls-23" x="3911.71" y="3920.83" width="84.19" height="84.19" rx="23.02" ry="23.02"/>
        <rect class="cls-22" x="4020.79" y="3920.83" width="84.19" height="84.19" rx="23.02" ry="23.02"/>
        <rect class="cls-14" x="4129.87" y="3920.83" width="84.19" height="84.19" rx="23.02" ry="23.02"/>
        <rect class="cls-15" x="3693.55" y="4026.24" width="84.19" height="84.19" rx="23.02" ry="23.02"/>
        <rect class="cls-12" x="3802.63" y="4026.24" width="84.19" height="84.19" rx="23.02" ry="23.02"/>
        <path class="cls-37" d="M3754.39,3900.6h-37.5c-13.42,0-24.34-10.92-24.34-24.34v-37.5c0-13.42,10.92-24.34,24.34-24.34h37.5c13.42,0,24.34,10.92,24.34,24.34v37.5c0,13.42-10.92,24.34-24.34,24.34ZM3716.89,3816.41c-12.33,0-22.35,10.03-22.35,22.35v37.5c0,12.33,10.03,22.35,22.35,22.35h37.5c12.33,0,22.35-10.03,22.35-22.35v-37.5c0-12.33-10.03-22.35-22.35-22.35h-37.5Z"/>
        <path class="cls-37" d="M3863.47,3900.6h-37.49c-13.42,0-24.34-10.92-24.34-24.34v-37.5c0-13.42,10.92-24.34,24.34-24.34h37.49c13.42,0,24.34,10.92,24.34,24.34v37.5c0,13.42-10.92,24.34-24.34,24.34ZM3825.97,3816.41c-12.33,0-22.35,10.03-22.35,22.35v37.5c0,12.33,10.03,22.35,22.35,22.35h37.49c12.33,0,22.35-10.03,22.35-22.35v-37.5c0-12.33-10.03-22.35-22.35-22.35h-37.49Z"/>
        <path class="cls-37" d="M3972.55,3900.6h-37.49c-13.42,0-24.34-10.92-24.34-24.34v-37.5c0-13.42,10.92-24.34,24.34-24.34h37.49c13.42,0,24.34,10.92,24.34,24.34v37.5c0,13.42-10.92,24.34-24.34,24.34ZM3935.05,3816.41c-12.33,0-22.35,10.03-22.35,22.35v37.5c0,12.33,10.03,22.35,22.35,22.35h37.49c12.33,0,22.35-10.03,22.35-22.35v-37.5c0-12.33-10.03-22.35-22.35-22.35h-37.49Z"/>
        <path class="cls-37" d="M4081.63,3900.6h-37.49c-13.42,0-24.34-10.92-24.34-24.34v-37.5c0-13.42,10.92-24.34,24.34-24.34h37.49c13.42,0,24.34,10.92,24.34,24.34v37.5c0,13.42-10.92,24.34-24.34,24.34ZM4044.14,3816.41c-12.33,0-22.35,10.03-22.35,22.35v37.5c0,12.33,10.03,22.35,22.35,22.35h37.49c12.33,0,22.35-10.03,22.35-22.35v-37.5c0-12.33-10.03-22.35-22.35-22.35h-37.49Z"/>
        <path class="cls-37" d="M4190.71,3900.6h-37.5c-13.42,0-24.34-10.92-24.34-24.34v-37.5c0-13.42,10.92-24.34,24.34-24.34h37.5c13.42,0,24.34,10.92,24.34,24.34v37.5c0,13.42-10.92,24.34-24.34,24.34ZM4153.22,3816.41c-12.33,0-22.35,10.03-22.35,22.35v37.5c0,12.33,10.03,22.35,22.35,22.35h37.5c12.33,0,22.35-10.03,22.35-22.35v-37.5c0-12.33-10.03-22.35-22.35-22.35h-37.5Z"/>
        <path class="cls-37" d="M3754.39,4006.01h-37.5c-13.42,0-24.34-10.92-24.34-24.34v-37.49c0-13.42,10.92-24.34,24.34-24.34h37.5c13.42,0,24.34,10.92,24.34,24.34v37.49c0,13.42-10.92,24.34-24.34,24.34ZM3716.89,3921.82c-12.33,0-22.35,10.03-22.35,22.35v37.49c0,12.33,10.03,22.35,22.35,22.35h37.5c12.33,0,22.35-10.03,22.35-22.35v-37.49c0-12.33-10.03-22.35-22.35-22.35h-37.5Z"/>
        <path class="cls-37" d="M3863.47,4006.01h-37.49c-13.42,0-24.34-10.92-24.34-24.34v-37.49c0-13.42,10.92-24.34,24.34-24.34h37.49c13.42,0,24.34,10.92,24.34,24.34v37.49c0,13.42-10.92,24.34-24.34,24.34ZM3825.97,3921.82c-12.33,0-22.35,10.03-22.35,22.35v37.49c0,12.33,10.03,22.35,22.35,22.35h37.49c12.33,0,22.35-10.03,22.35-22.35v-37.49c0-12.33-10.03-22.35-22.35-22.35h-37.49Z"/>
        <path class="cls-37" d="M3972.55,4006.01h-37.49c-13.42,0-24.34-10.92-24.34-24.34v-37.49c0-13.42,10.92-24.34,24.34-24.34h37.49c13.42,0,24.34,10.92,24.34,24.34v37.49c0,13.42-10.92,24.34-24.34,24.34ZM3935.05,3921.82c-12.33,0-22.35,10.03-22.35,22.35v37.49c0,12.33,10.03,22.35,22.35,22.35h37.49c12.33,0,22.35-10.03,22.35-22.35v-37.49c0-12.33-10.03-22.35-22.35-22.35h-37.49Z"/>
        <path class="cls-37" d="M4081.63,4006.01h-37.49c-13.42,0-24.34-10.92-24.34-24.34v-37.49c0-13.42,10.92-24.34,24.34-24.34h37.49c13.42,0,24.34,10.92,24.34,24.34v37.49c0,13.42-10.92,24.34-24.34,24.34ZM4044.14,3921.82c-12.33,0-22.35,10.03-22.35,22.35v37.49c0,12.33,10.03,22.35,22.35,22.35h37.49c12.33,0,22.35-10.03,22.35-22.35v-37.49c0-12.33-10.03-22.35-22.35-22.35h-37.49Z"/>
        <path class="cls-37" d="M4190.71,4006.01h-37.5c-13.42,0-24.34-10.92-24.34-24.34v-37.49c0-13.42,10.92-24.34,24.34-24.34h37.5c13.42,0,24.34,10.92,24.34,24.34v37.49c0,13.42-10.92,24.34-24.34,24.34ZM4153.22,3921.82c-12.33,0-22.35,10.03-22.35,22.35v37.49c0,12.33,10.03,22.35,22.35,22.35h37.5c12.33,0,22.35-10.03,22.35-22.35v-37.49c0-12.33-10.03-22.35-22.35-22.35h-37.5Z"/>
        <path class="cls-37" d="M3754.39,4111.42h-37.5c-13.42,0-24.34-10.92-24.34-24.34v-37.5c0-13.42,10.92-24.34,24.34-24.34h37.5c13.42,0,24.34,10.92,24.34,24.34v37.5c0,13.42-10.92,24.34-24.34,24.34ZM3716.89,4027.24c-12.33,0-22.35,10.03-22.35,22.35v37.5c0,12.33,10.03,22.35,22.35,22.35h37.5c12.33,0,22.35-10.03,22.35-22.35v-37.5c0-12.33-10.03-22.35-22.35-22.35h-37.5Z"/>
        <path class="cls-37" d="M3863.47,4111.42h-37.49c-13.42,0-24.34-10.92-24.34-24.34v-37.5c0-13.42,10.92-24.34,24.34-24.34h37.49c13.42,0,24.34,10.92,24.34,24.34v37.5c0,13.42-10.92,24.34-24.34,24.34ZM3825.97,4027.24c-12.33,0-22.35,10.03-22.35,22.35v37.5c0,12.33,10.03,22.35,22.35,22.35h37.49c12.33,0,22.35-10.03,22.35-22.35v-37.5c0-12.33-10.03-22.35-22.35-22.35h-37.49Z"/>
      </g>
    </g>
  </g>
  <g id="Icon_8" data-name="Icon 8">
    <g id="Graphic_Element-5" data-name="Graphic Element">
      <g>
        <rect class="cls-4" x="2117.5" y="3595.91" width="475.01" height="718.18" rx="86.67" ry="86.67" transform="translate(6310 1600) rotate(90)"/>
        <rect class="cls-8" x="2027.91" y="3749.5" width="654.18" height="411.01" rx="54.67" ry="54.67"/>
        <g>
          <path class="cls-37" d="M2083.28,4166.33c-33.75,0-61.21-27.46-61.21-61.21v-300.26c0-33.75,27.46-61.21,61.21-61.21h543.43c33.75,0,61.21,27.46,61.21,61.21v300.26c0,33.75-27.46,61.21-61.21,61.21h-543.43ZM2083.28,3755.33c-27.32,0-49.55,22.23-49.55,49.55v300.26c0,27.32,22.23,49.55,49.55,49.55h543.43c27.32,0,49.55-22.23,49.55-49.55v-300.26c0-27.32-22.23-49.55-49.55-49.55h-543.43Z"/>
          <path class="cls-37" d="M2626.72,4161.33h-543.43c-30.99,0-56.21-25.21-56.21-56.21v-300.26c0-30.99,25.21-56.21,56.21-56.21h543.43c30.99,0,56.21,25.21,56.21,56.21v300.26c0,30.99-25.21,56.21-56.21,56.21ZM2083.28,3750.32c-30.08,0-54.55,24.47-54.55,54.55v300.26c0,30.08,24.47,54.55,54.55,54.55h543.43c30.08,0,54.55-24.47,54.55-54.55v-300.26c0-30.08-24.47-54.55-54.55-54.55h-543.43Z"/>
        </g>
        <rect class="cls-37" x="2027.91" y="3841.63" width="654.18" height="76.84"/>
        <rect class="cls-37" x="2101.62" y="3990.59" width="122.76" height="79.6" rx="7.6" ry="7.6"/>
      </g>
    </g>
  </g>
  <g id="Icon_7" data-name="Icon 7">
    <g id="Graphic_Element-6" data-name="Graphic Element">
      <g>
        <path class="cls-6" d="M755,4313.89c-48.44,0-95.44-9.49-139.71-28.22-42.74-18.08-81.12-43.95-114.07-76.9-32.95-32.95-58.82-71.33-76.9-114.07-18.72-44.27-28.22-91.27-28.22-139.71s9.49-95.44,28.22-139.71c18.08-42.74,43.95-81.12,76.9-114.07s71.33-58.82,114.07-76.9c44.27-18.72,91.27-28.22,139.71-28.22s95.44,9.49,139.71,28.22c42.74,18.08,81.12,43.95,114.07,76.9s58.82,71.33,76.9,114.07c18.72,44.27,28.22,91.27,28.22,139.71s-9.49,95.44-28.22,139.71c-18.08,42.74-43.95,81.12-76.9,114.07-32.95,32.95-71.33,58.82-114.07,76.9-44.27,18.72-91.27,28.22-139.71,28.22Z"/>
        <path class="cls-11" d="M755,3628.11c-180.54,0-326.89,146.35-326.89,326.89s146.35,326.89,326.89,326.89,326.89-146.35,326.89-326.89-146.35-326.89-326.89-326.89Z"/>
        <g>
          <path class="cls-37" d="M755,4287.92c-183.57,0-332.92-149.35-332.92-332.92s149.35-332.92,332.92-332.92,332.92,149.35,332.92,332.92-149.35,332.92-332.92,332.92ZM755,3634.14c-176.92,0-320.86,143.94-320.86,320.86s143.94,320.86,320.86,320.86,320.86-143.94,320.86-320.86-143.94-320.86-320.86-320.86Z"/>
          <path class="cls-37" d="M755,4282.92c-180.82,0-327.92-147.1-327.92-327.92s147.1-327.92,327.92-327.92,327.92,147.1,327.92,327.92-147.1,327.92-327.92,327.92ZM755,3629.14c-179.68,0-325.86,146.18-325.86,325.86s146.18,325.86,325.86,325.86,325.86-146.18,325.86-325.86-146.18-325.86-325.86-325.86Z"/>
        </g>
        <path class="cls-37" d="M877.5,3922.65l-195.9-113.1c-24.91-14.38-56.04,3.59-56.04,32.35v226.21c0,28.76,31.13,46.73,56.04,32.35l195.9-113.1c12.45-7.19,18.68-19.77,18.68-32.35s-6.23-25.16-18.68-32.35Z"/>
      </g>
    </g>
  </g>
  <g id="Icon_6" data-name="Icon 6">
    <g id="Graphic_Element-7" data-name="Graphic Element">
      <g>
        <path class="cls-5" d="M3721.55,2651.96c-69.12,0-125.35-56.23-125.35-125.35v-247.41c0-69.12,56.23-125.35,125.35-125.35h65.48l5.88-35.87c5.7-34.74,35.38-59.95,70.58-59.95h183.01c35.2,0,64.88,25.21,70.58,59.95l5.88,35.87h65.48c69.12,0,125.35,56.23,125.35,125.35v247.41c0,69.12-56.23,125.35-125.35,125.35h-466.9Z"/>
        <path class="cls-9" d="M4093.54,2172.13l-8.03-48.96c-3.13-19.1-19.64-33.13-39-33.13h-183.01c-19.36,0-35.87,14.02-39,33.13l-8.03,48.96c-1.3,7.92-8.14,13.73-16.16,13.73h-78.75c-51.55,0-93.35,41.79-93.35,93.35v247.41c0,51.55,41.79,93.35,93.35,93.35h466.9c51.55,0,93.35-41.79,93.35-93.35v-247.41c0-51.55-41.79-93.35-93.35-93.35h-78.75c-8.02,0-14.87-5.81-16.16-13.73Z"/>
        <g>
          <path class="cls-37" d="M3721.55,2626.09c-54.85,0-99.47-44.62-99.47-99.47v-247.41c0-54.85,44.62-99.47,99.47-99.47h78.75c5.05,0,9.3-3.62,10.12-8.6l8.03-48.96c3.63-22.17,22.58-38.26,45.04-38.26h183.01c22.47,0,41.41,16.09,45.04,38.26l8.03,48.96c.82,4.98,5.07,8.6,10.12,8.6h78.75c54.85,0,99.47,44.62,99.47,99.47v247.41c0,54.85-44.62,99.47-99.47,99.47h-466.89ZM3721.55,2191.98c-48.09,0-87.22,39.13-87.22,87.22v247.41c0,48.09,39.13,87.22,87.22,87.22h466.89c48.09,0,87.22-39.13,87.22-87.22v-247.41c0-48.09-39.13-87.22-87.22-87.22h-78.75c-11.08,0-20.42-7.93-22.21-18.86l-8.03-48.96c-2.66-16.22-16.52-27.99-32.96-27.99h-183.01c-16.44,0-30.3,11.77-32.96,27.99l-8.03,48.96c-1.79,10.93-11.13,18.86-22.21,18.86h-78.75Z"/>
          <path class="cls-37" d="M4188.45,2621.09h-466.9c-52.09,0-94.47-42.38-94.47-94.47v-247.41c0-52.09,42.38-94.47,94.47-94.47h78.75c7.51,0,13.84-5.38,15.05-12.79l8.03-48.96c3.24-19.74,20.11-34.07,40.11-34.07h183.01c20.01,0,36.88,14.33,40.11,34.07l8.03,48.96c1.22,7.41,7.55,12.79,15.05,12.79h78.75c52.09,0,94.47,42.38,94.47,94.47v247.41c0,52.09-42.38,94.47-94.47,94.47ZM3721.55,2186.98c-50.85,0-92.22,41.37-92.22,92.22v247.41c0,50.85,41.37,92.22,92.22,92.22h466.9c50.85,0,92.22-41.37,92.22-92.22v-247.41c0-50.85-41.37-92.22-92.22-92.22h-78.75c-8.61,0-15.88-6.17-17.27-14.67l-8.03-48.96c-3.06-18.65-18.99-32.18-37.89-32.18h-183.01c-18.9,0-34.83,13.54-37.89,32.18l-8.03,48.96c-1.39,8.5-8.66,14.67-17.27,14.67h-78.75Z"/>
        </g>
        <path class="cls-37" d="M3955,2243.01c-85.41,0-154.65,69.24-154.65,154.65s69.24,154.65,154.65,154.65,154.65-69.24,154.65-154.65-69.24-154.65-154.65-154.65ZM3955,2443.73c-25.44,0-46.06-20.62-46.06-46.06s20.62-46.06,46.06-46.06,46.06,20.62,46.06,46.06-20.62,46.06-46.06,46.06Z"/>
      </g>
    </g>
  </g>
  <g id="Icon_5" data-name="Icon 5">
    <g id="Graphic_Element-8" data-name="Graphic Element">
      <g>
        <path class="cls-10" d="M2576.77,2469.55h-5.16c-9.38,0-16.98-7.6-16.98-16.98v-170.4c0-91.9-62.11-169.29-146.63-192.5.31-2.33.49-4.71.49-7.13,0-29.54-23.95-53.48-53.48-53.48s-53.48,23.95-53.48,53.48c0,2.42.18,4.79.49,7.13-84.53,23.22-146.63,100.6-146.63,192.5v170.4c0,9.38-7.6,16.98-16.98,16.98h-5.16c-33.62,0-60.87,27.25-60.87,60.87h0c0,33.62,27.25,60.87,60.87,60.87h443.54c33.62,0,60.87-27.25,60.87-60.87h0c0-33.62-27.25-60.87-60.87-60.87Z"/>
        <g>
          <path class="cls-37" d="M2133.23,2597.26c-36.86,0-66.84-29.99-66.84-66.84s29.99-66.84,66.84-66.84h5.16c6.07,0,11.01-4.94,11.01-11.01v-170.4c0-90.52,59.92-170.89,146.21-196.88-.04-.93-.07-1.85-.07-2.75,0-32.78,26.67-59.46,59.46-59.46s59.45,26.67,59.45,59.46c0,.91-.02,1.82-.07,2.75,86.3,25.99,146.21,106.36,146.21,196.88v170.4c0,6.07,4.94,11.01,11.01,11.01h5.16c36.86,0,66.84,29.99,66.84,66.84s-29.99,66.84-66.84,66.84h-443.54ZM2133.23,2475.52c-30.27,0-54.9,24.63-54.9,54.9s24.63,54.9,54.9,54.9h443.54c30.27,0,54.9-24.63,54.9-54.9s-24.63-54.9-54.9-54.9h-5.16c-12.66,0-22.95-10.3-22.95-22.95v-170.4c0-86.95-58.49-163.74-142.24-186.75l-5.04-1.38.7-5.18c.29-2.15.43-4.29.43-6.32,0-26.2-21.31-47.51-47.51-47.51s-47.51,21.31-47.51,47.51c0,2.04.15,4.18.43,6.34l.69,5.17-5.03,1.38c-83.75,23-142.24,99.8-142.24,186.75v170.4c0,12.66-10.3,22.95-22.95,22.95h-5.16Z"/>
          <path class="cls-37" d="M2576.77,2592.26h-443.54c-34.1,0-61.84-27.74-61.84-61.84s27.74-61.84,61.84-61.84h5.16c8.83,0,16.01-7.18,16.01-16.01v-170.4c0-89.78,60.21-169.11,146.54-193.22-.26-2.18-.39-4.33-.39-6.41,0-30.03,24.43-54.46,54.45-54.46s54.45,24.43,54.45,54.46c0,2.09-.13,4.24-.39,6.41,86.32,24.1,146.53,103.43,146.53,193.22v170.4c0,8.83,7.18,16.01,16.01,16.01h5.16c34.1,0,61.84,27.74,61.84,61.84s-27.74,61.84-61.84,61.84ZM2133.23,2470.52c-33.03,0-59.9,26.87-59.9,59.9s26.87,59.9,59.9,59.9h443.54c33.03,0,59.9-26.87,59.9-59.9s-26.87-59.9-59.9-59.9h-5.16c-9.9,0-17.95-8.05-17.95-17.95v-170.4c0-89.19-60-167.97-145.92-191.57l-.82-.22.11-.84c.32-2.37.48-4.73.48-7,0-28.96-23.56-52.51-52.51-52.51s-52.51,23.56-52.51,52.51c0,2.26.16,4.62.48,7l.11.84-.82.22c-85.91,23.6-145.92,102.38-145.92,191.57v170.4c0,9.9-8.05,17.95-17.95,17.95h-5.16Z"/>
        </g>
        <path class="cls-2" d="M2586.63,2438.07v-155.9c0-51.77-16.7-100.73-48.31-141.59-25.74-33.28-60.45-59.11-99.4-74.32-7.62-39.37-42.36-69.2-83.93-69.2s-76.3,29.83-83.93,69.2c-38.94,15.21-73.66,41.05-99.4,74.32-31.6,40.86-48.31,89.82-48.31,141.59v155.9c-46.59,4.94-83.01,44.47-83.01,92.35,0,51.21,41.66,92.87,92.87,92.87h104.39c14.08,51.61,61.37,89.66,117.38,89.66s103.3-38.05,117.38-89.66h104.39c51.21,0,92.87-41.66,92.87-92.87,0-47.88-36.42-87.42-83.01-92.35Z"/>
        <path class="cls-37" d="M2444.66,2591.29c0,49.52-40.14,89.66-89.66,89.66s-89.66-40.14-89.66-89.66h179.32Z"/>
        <g>
          <path class="cls-37" d="M2355,2686.92c-52.73,0-95.63-42.9-95.63-95.63v-5.97h191.26v5.97c0,52.73-42.9,95.63-95.63,95.63ZM2271.52,2597.26c3.09,43.3,39.52,77.72,83.48,77.72s80.39-34.42,83.48-77.72h-166.95Z"/>
          <path class="cls-37" d="M2355,2681.92c-49.97,0-90.63-40.66-90.63-90.63v-.97h181.26v.97c0,49.97-40.66,90.63-90.63,90.63ZM2266.32,2592.26c.52,48.46,40.1,87.72,88.68,87.72s88.16-39.26,88.68-87.72h-177.37Z"/>
        </g>
      </g>
    </g>
  </g>
  <g id="Icon_4" data-name="Icon 4">
    <g id="Graphic_Element-9" data-name="Graphic Element">
      <path class="cls-37" d="M573.96,2471.88c-57.77,0-104.77,47-104.77,104.78s47,104.77,104.77,104.77,104.78-47,104.78-104.77-47-104.78-104.78-104.78Z"/>
      <path class="cls-37" d="M936.03,2389.26c-57.77,0-104.78,47-104.78,104.77s47,104.78,104.78,104.78,104.77-47,104.77-104.78-47-104.77-104.77-104.77Z"/>
      <g>
        <g>
          <path class="cls-37" d="M573.97,2687.4c-61.07,0-110.75-49.68-110.75-110.75s49.68-110.75,110.75-110.75,110.75,49.68,110.75,110.75-49.68,110.75-110.75,110.75ZM573.97,2477.85c-54.48,0-98.8,44.32-98.8,98.8s44.32,98.8,98.8,98.8,98.8-44.32,98.8-98.8-44.32-98.8-98.8-98.8Z"/>
          <path class="cls-37" d="M573.97,2682.4c-58.31,0-105.75-47.44-105.75-105.75s47.44-105.75,105.75-105.75,105.75,47.44,105.75,105.75-47.44,105.75-105.75,105.75ZM573.97,2472.85c-57.24,0-103.8,46.57-103.8,103.8s46.56,103.8,103.8,103.8,103.8-46.56,103.8-103.8-46.57-103.8-103.8-103.8Z"/>
        </g>
        <g>
          <path class="cls-37" d="M936.03,2604.79c-61.07,0-110.75-49.68-110.75-110.75s49.68-110.75,110.75-110.75,110.75,49.68,110.75,110.75-49.68,110.75-110.75,110.75ZM936.03,2395.24c-54.48,0-98.8,44.32-98.8,98.8s44.32,98.8,98.8,98.8,98.8-44.32,98.8-98.8-44.32-98.8-98.8-98.8Z"/>
          <path class="cls-37" d="M936.03,2599.79c-58.31,0-105.75-47.44-105.75-105.75s47.44-105.75,105.75-105.75,105.75,47.44,105.75,105.75-47.44,105.75-105.75,105.75ZM936.03,2390.24c-57.24,0-103.8,46.56-103.8,103.8s46.57,103.8,103.8,103.8,103.8-46.57,103.8-103.8-46.56-103.8-103.8-103.8Z"/>
        </g>
      </g>
      <path class="cls-1" d="M993.65,1996.59c-9.26,0-18.42,1.63-27.22,4.84l-310.64,113.4c-50.1,18.29-83.76,66.41-83.76,119.75v205.31c-74.52,1.04-134.83,61.98-134.83,136.75s61.36,136.77,136.77,136.77,133.48-58.13,136.64-130.78l.14-.03v-232.28l223.75-71.19v78.12c-74.71.83-135.24,61.85-135.24,136.75s61.36,136.78,136.78,136.78,136.77-61.36,136.77-136.78v-418.19c0-43.7-35.51-79.26-79.16-79.26Z"/>
      <path class="cls-13" d="M678.74,2576.66v-245.62c0-2.43,1.57-4.58,3.89-5.32l276.58-88c3.6-1.15,7.28,1.54,7.28,5.32v251.01h74.31v-418.19c0-32.79-32.6-55.6-63.41-44.35l-310.64,113.4c-37.67,13.75-62.74,49.58-62.74,89.69v342.06h74.72Z"/>
      <g>
        <path class="cls-37" d="M598.05,2582.63v-348.04c0-42.45,26.79-80.74,66.66-95.3l310.64-113.41c5.98-2.18,12.17-3.29,18.4-3.29,10.8,0,21.29,3.34,30.33,9.67,14.43,10.09,22.7,25.98,22.7,43.58v418.19l-86.26,5.97v-256.45l-275.81,87.76v245.34l-86.67,5.97ZM672.77,2570.68v-239.65c0-5.06,3.24-9.48,8.05-11.01l276.58-88c1.14-.37,2.33-.55,3.53-.55,2.45,0,4.8.77,6.8,2.24,3.01,2.2,4.73,5.6,4.73,9.33v245.03h62.37v-412.21c0-13.65-6.42-25.97-17.6-33.8-7.02-4.91-15.15-7.51-23.49-7.51-4.83,0-9.63.86-14.29,2.56l-310.64,113.41c-35.18,12.84-58.81,46.63-58.81,84.08v336.09h62.77Z"/>
        <path class="cls-37" d="M679.71,2577.63h-76.67v-343.04c0-40.35,25.47-76.76,63.38-90.6l310.64-113.41c14.98-5.47,31.07-3.36,44.15,5.78,13.07,9.14,20.57,23.54,20.57,39.49v419.16h-76.26v-251.98c0-1.49-.69-2.84-1.89-3.72-1.2-.88-2.7-1.12-4.12-.67l-276.58,88c-1.92.61-3.21,2.38-3.21,4.39v246.59ZM604.99,2575.68h72.77v-244.65c0-2.87,1.84-5.38,4.57-6.25l276.58-88c2.02-.64,4.15-.29,5.86.96,1.71,1.25,2.69,3.18,2.69,5.29v250.03h72.37v-417.21c0-15.31-7.19-29.12-19.74-37.89-12.54-8.77-27.99-10.8-42.36-5.55l-310.64,113.41c-37.14,13.56-62.1,49.24-62.1,88.78v341.09Z"/>
      </g>
    </g>
  </g>
  <g id="Icon_3" data-name="Icon 3">
    <g id="Graphic_Element-10" data-name="Graphic Element">
      <g>
        <rect class="cls-3" x="3595.93" y="544.22" width="718.13" height="421.56" rx="101.57" ry="101.57" transform="translate(4710 -3200) rotate(90)"/>
        <rect class="cls-7" x="3776.22" y="427.93" width="357.56" height="654.13" rx="69.57" ry="69.57"/>
        <rect class="cls-36" x="3689.86" y="591.7" width="530.29" height="280.15" rx="26.94" ry="26.94" transform="translate(4686.78 -3223.22) rotate(90)"/>
        <path class="cls-37" d="M4068.03,997.78h-226.06c-15.39,0-27.9-12.52-27.9-27.9v-476.19c0-15.39,12.52-27.9,27.9-27.9h226.06c15.39,0,27.9,12.52,27.9,27.9v476.19c0,15.39-12.52,27.9-27.9,27.9ZM3841.97,467.49c-14.44,0-26.19,11.75-26.19,26.19v476.19c0,14.44,11.75,26.19,26.19,26.19h226.06c14.44,0,26.19-11.75,26.19-26.19v-476.19c0-14.44-11.75-26.19-26.19-26.19h-226.06Z"/>
        <g>
          <path class="cls-37" d="M3846.05,1087.92c-41.73,0-75.68-33.95-75.68-75.68V497.76c0-41.73,33.95-75.68,75.68-75.68h217.9c41.73,0,75.68,33.95,75.68,75.68v514.48c0,41.73-33.95,75.68-75.68,75.68h-217.9ZM3846.05,433.79c-35.27,0-63.97,28.7-63.97,63.97v514.48c0,35.27,28.7,63.97,63.97,63.97h217.9c35.27,0,63.97-28.7,63.97-63.97V497.76c0-35.27-28.7-63.97-63.97-63.97h-217.9Z"/>
          <path class="cls-37" d="M4063.95,1082.92h-217.9c-38.98,0-70.68-31.71-70.68-70.68V497.76c0-38.97,31.71-70.68,70.68-70.68h217.9c38.98,0,70.68,31.71,70.68,70.68v514.48c0,38.97-31.71,70.68-70.68,70.68ZM3846.05,428.79c-38.03,0-68.97,30.94-68.97,68.97v514.48c0,38.03,30.94,68.97,68.97,68.97h217.9c38.03,0,68.97-30.94,68.97-68.97V497.76c0-38.03-30.94-68.97-68.97-68.97h-217.9Z"/>
        </g>
        <path class="cls-37" d="M3992.52,1041.91h-75.04c-2.36,0-4.28-1.92-4.28-4.28s1.92-4.28,4.28-4.28h75.04c2.36,0,4.28,1.92,4.28,4.28s-1.92,4.28-4.28,4.28Z"/>
      </g>
    </g>
  </g>
  <g id="Icon_1" data-name="Icon 1">
    <g>
      <rect class="cls-26" x="2120.64" y="493.68" width="559.32" height="0"/>
      <rect class="cls-26" x="2108.16" y="873.92" width="571.79" height="42.31" rx="21.15" ry="21.15"/>
      <rect class="cls-26" x="2108.16" y="672.71" width="571.79" height="42.31" rx="21.15" ry="21.15"/>
      <rect class="cls-26" x="2108.16" y="472.52" width="571.79" height="42.31" rx="21.15" ry="21.15"/>
    </g>
    <g>
      <rect class="cls-26" x="447.74" y="680.73" width="485.2" height="39.39" rx=".78" ry=".78" transform="translate(1673.77 707.55) rotate(135)"/>
      <rect class="cls-26" x="454.3" y="674.17" width="485.2" height="39.39" rx="2.43" ry="2.43" transform="translate(699.06 1677.28) rotate(-135)"/>
    </g>
  </g>
</svg>