<?xml version="1.0" encoding="UTF-8"?>
<svg xmlns="http://www.w3.org/2000/svg" xmlns:xlink="http://www.w3.org/1999/xlink" version="1.1" viewBox="0 0 1500 1500">
  <defs>
    <style>
      .cls-1 {
        fill: url(#radial-gradient-31);
      }

      .cls-1, .cls-2, .cls-3, .cls-4, .cls-5, .cls-6, .cls-7, .cls-8, .cls-9, .cls-10, .cls-11, .cls-12, .cls-13, .cls-14, .cls-15, .cls-16, .cls-17, .cls-18, .cls-19, .cls-20, .cls-21, .cls-22, .cls-23, .cls-24, .cls-25, .cls-26, .cls-27, .cls-28, .cls-29, .cls-30, .cls-31, .cls-32, .cls-33, .cls-34, .cls-35, .cls-36, .cls-37, .cls-38 {
        stroke-width: 0px;
      }

      .cls-1, .cls-2, .cls-3, .cls-4, .cls-5, .cls-6, .cls-28, .cls-29, .cls-30, .cls-31 {
        opacity: .5;
      }

      .cls-2 {
        fill: url(#radial-gradient-30);
      }

      .cls-3 {
        fill: url(#radial-gradient-33);
      }

      .cls-4 {
        fill: url(#radial-gradient-23);
      }

      .cls-5 {
        fill: url(#radial-gradient-27);
      }

      .cls-6 {
        fill: url(#radial-gradient-25);
      }

      .cls-7 {
        fill: none;
      }

      .cls-8 {
        fill: url(#radial-gradient-34);
      }

      .cls-9 {
        fill: url(#radial-gradient-24);
      }

      .cls-10 {
        fill: url(#radial-gradient-28);
      }

      .cls-11 {
        fill: url(#radial-gradient-29);
      }

      .cls-12 {
        fill: url(#radial-gradient-26);
      }

      .cls-13 {
        fill: url(#radial-gradient-22);
      }

      .cls-14 {
        fill: url(#radial-gradient-32);
      }

      .cls-15 {
        fill: url(#radial-gradient-20);
      }

      .cls-16 {
        fill: url(#radial-gradient-21);
      }

      .cls-17 {
        fill: url(#radial-gradient-14);
      }

      .cls-18 {
        fill: url(#radial-gradient-13);
      }

      .cls-19 {
        fill: url(#radial-gradient-12);
      }

      .cls-20 {
        fill: url(#radial-gradient-15);
      }

      .cls-21 {
        fill: url(#radial-gradient-16);
      }

      .cls-22 {
        fill: url(#radial-gradient-11);
      }

      .cls-23 {
        fill: url(#radial-gradient-19);
      }

      .cls-24 {
        fill: url(#radial-gradient-18);
      }

      .cls-25 {
        fill: url(#radial-gradient-17);
      }

      .cls-26 {
        fill: url(#radial-gradient-10);
      }

      .cls-27 {
        fill: #2a3344;
      }

      .cls-28 {
        fill: url(#radial-gradient);
      }

      .cls-29 {
        fill: url(#radial-gradient-5);
      }

      .cls-30 {
        fill: url(#radial-gradient-7);
      }

      .cls-31 {
        fill: url(#radial-gradient-9);
      }

      .cls-32 {
        fill: url(#radial-gradient-2);
      }

      .cls-33 {
        fill: url(#radial-gradient-3);
      }

      .cls-34 {
        fill: url(#radial-gradient-4);
      }

      .cls-35 {
        fill: url(#radial-gradient-6);
      }

      .cls-36 {
        fill: url(#radial-gradient-8);
      }

      .cls-37 {
        fill: url(#radial-gradient-35);
        opacity: .7;
      }

      .cls-38 {
        fill: #fff;
      }
    </style>
    <clipPath id="clippath">
      <rect class="cls-7" x="1600" y="4800" width="1500" height="1500"/>
    </clipPath>
    <radialGradient id="radial-gradient" cx="2350" cy="5550" fx="2350" fy="5550" r="406.8" gradientTransform="translate(0 -196.6) scale(1 1)" gradientUnits="userSpaceOnUse">
      <stop offset="0" stop-color="#fff" stop-opacity="0"/>
      <stop offset=".3" stop-color="rgba(255, 255, 255, 0)" stop-opacity="0"/>
      <stop offset=".5" stop-color="rgba(255, 255, 255, 0)" stop-opacity="0"/>
      <stop offset=".6" stop-color="rgba(255, 255, 255, 0)" stop-opacity="0"/>
      <stop offset=".7" stop-color="rgba(255, 255, 255, .2)" stop-opacity=".2"/>
      <stop offset=".7" stop-color="rgba(255, 255, 255, .2)" stop-opacity=".2"/>
      <stop offset=".8" stop-color="rgba(255, 255, 255, .3)" stop-opacity=".3"/>
      <stop offset=".9" stop-color="rgba(255, 255, 255, .5)" stop-opacity=".5"/>
      <stop offset=".9" stop-color="rgba(255, 255, 255, .6)" stop-opacity=".6"/>
      <stop offset="1" stop-color="rgba(255, 255, 255, .8)" stop-opacity=".8"/>
      <stop offset="1" stop-color="rgba(255, 255, 255, 1)" stop-opacity="1"/>
      <stop offset="1" stop-color="#fff"/>
    </radialGradient>
    <radialGradient id="radial-gradient-2" cx="2350" cy="5705.5" fx="2350" fy="5705.5" r="455.3" gradientTransform="translate(0 998.3) scale(1 .8)" gradientUnits="userSpaceOnUse">
      <stop offset="0" stop-color="#fff" stop-opacity="0"/>
      <stop offset=".1" stop-color="rgba(255, 255, 255, 0)" stop-opacity="0"/>
      <stop offset=".3" stop-color="rgba(255, 255, 255, 0)" stop-opacity="0"/>
      <stop offset=".4" stop-color="rgba(255, 255, 255, .1)" stop-opacity=".1"/>
      <stop offset=".5" stop-color="rgba(255, 255, 255, .2)" stop-opacity=".2"/>
      <stop offset=".6" stop-color="rgba(255, 255, 255, .4)" stop-opacity=".4"/>
      <stop offset=".8" stop-color="rgba(255, 255, 255, .6)" stop-opacity=".6"/>
      <stop offset=".9" stop-color="rgba(255, 255, 255, .8)" stop-opacity=".8"/>
      <stop offset="1" stop-color="rgba(255, 255, 255, 1)" stop-opacity="1"/>
      <stop offset="1" stop-color="#fff"/>
    </radialGradient>
    <radialGradient id="radial-gradient-3" cx="2350" cy="5464.1" fx="2350" fy="5464.1" r="401.2" gradientTransform="translate(0 1105.6) scale(1 .8)" xlink:href="#radial-gradient-2"/>
    <clipPath id="clippath-1">
      <rect class="cls-7" x="0" y="4800" width="1500" height="1500"/>
    </clipPath>
    <radialGradient id="radial-gradient-4" cx="750" cy="5612.5" fx="750" fy="5612.5" r="426.4" gradientTransform="translate(25.8 2209.6) rotate(.4) scale(1 .6)" xlink:href="#radial-gradient-2"/>
    <radialGradient id="radial-gradient-5" cx="750" cy="5550" fx="750" fy="5550" r="382.9" gradientTransform="translate(0 427.3) scale(1 .9)" gradientUnits="userSpaceOnUse">
      <stop offset="0" stop-color="#fff" stop-opacity="0"/>
      <stop offset=".3" stop-color="rgba(255, 255, 255, 0)" stop-opacity="0"/>
      <stop offset=".4" stop-color="rgba(255, 255, 255, 0)" stop-opacity="0"/>
      <stop offset=".5" stop-color="rgba(255, 255, 255, 0)" stop-opacity="0"/>
      <stop offset=".6" stop-color="rgba(255, 255, 255, .2)" stop-opacity=".2"/>
      <stop offset=".7" stop-color="rgba(255, 255, 255, .3)" stop-opacity=".3"/>
      <stop offset=".8" stop-color="rgba(255, 255, 255, .4)" stop-opacity=".4"/>
      <stop offset=".8" stop-color="rgba(255, 255, 255, .5)" stop-opacity=".5"/>
      <stop offset=".9" stop-color="rgba(255, 255, 255, .7)" stop-opacity=".7"/>
      <stop offset="1" stop-color="rgba(255, 255, 255, .8)" stop-opacity=".8"/>
      <stop offset="1" stop-color="#fff"/>
    </radialGradient>
    <radialGradient id="radial-gradient-6" cx="750" cy="5391.7" fx="750" fy="5391.7" r="454.9" gradientTransform="translate(0 3527.4) scale(1 .3)" xlink:href="#radial-gradient-2"/>
    <clipPath id="clippath-2">
      <rect class="cls-7" x="-1600" y="4800" width="1500" height="1500"/>
    </clipPath>
    <radialGradient id="radial-gradient-7" cx="-850" cy="5550" fx="-850" fy="5550" r="569.7" gradientTransform="translate(0 519.5) scale(1 .9)" xlink:href="#radial-gradient-5"/>
    <radialGradient id="radial-gradient-8" cx="-850" cy="5550" fx="-850" fy="5550" r="514.3" gradientTransform="translate(0 519.5) scale(1 .9)" xlink:href="#radial-gradient-2"/>
    <clipPath id="clippath-3">
      <rect class="cls-7" x="1600" y="3200" width="1500" height="1500"/>
    </clipPath>
    <radialGradient id="radial-gradient-9" cx="2350" cy="3949.5" fx="2350" fy="3949.5" r="467" gradientTransform="matrix(1,0,0,1,0,0)" xlink:href="#radial-gradient-5"/>
    <radialGradient id="radial-gradient-10" cx="2349.9" cy="3979" fx="2349.9" fy="3979" r="586" gradientTransform="translate(387.6 696.2) scale(.8 .8)" xlink:href="#radial-gradient-2"/>
    <radialGradient id="radial-gradient-11" cx="2130.6" cy="3852.5" fx="2130.6" fy="3852.5" r="58.6" gradientTransform="matrix(1,0,0,1,0,0)" xlink:href="#radial-gradient-2"/>
    <radialGradient id="radial-gradient-12" cx="2239.7" cy="3852.5" fx="2239.7" fy="3852.5" r="58.6" gradientTransform="matrix(1,0,0,1,0,0)" xlink:href="#radial-gradient-2"/>
    <radialGradient id="radial-gradient-13" cx="2348.8" cy="3852.5" fx="2348.8" fy="3852.5" r="58.6" gradientTransform="matrix(1,0,0,1,0,0)" xlink:href="#radial-gradient-2"/>
    <radialGradient id="radial-gradient-14" cx="2457.9" cy="3852.5" fx="2457.9" fy="3852.5" r="58.6" gradientTransform="matrix(1,0,0,1,0,0)" xlink:href="#radial-gradient-2"/>
    <radialGradient id="radial-gradient-15" cx="2567" cy="3852.5" fx="2567" fy="3852.5" r="58.6" gradientTransform="matrix(1,0,0,1,0,0)" xlink:href="#radial-gradient-2"/>
    <radialGradient id="radial-gradient-16" cx="2130.6" cy="3957.9" fx="2130.6" fy="3957.9" r="58.6" gradientTransform="matrix(1,0,0,1,0,0)" xlink:href="#radial-gradient-2"/>
    <radialGradient id="radial-gradient-17" cx="2239.7" cy="3957.9" fx="2239.7" fy="3957.9" r="58.6" gradientTransform="matrix(1,0,0,1,0,0)" xlink:href="#radial-gradient-2"/>
    <radialGradient id="radial-gradient-18" cx="2348.8" cy="3957.9" fx="2348.8" fy="3957.9" r="58.6" gradientTransform="matrix(1,0,0,1,0,0)" xlink:href="#radial-gradient-2"/>
    <radialGradient id="radial-gradient-19" cx="2457.9" cy="3957.9" fx="2457.9" fy="3957.9" r="58.6" gradientTransform="matrix(1,0,0,1,0,0)" xlink:href="#radial-gradient-2"/>
    <radialGradient id="radial-gradient-20" cx="2567" cy="3957.9" fx="2567" fy="3957.9" r="58.6" gradientTransform="matrix(1,0,0,1,0,0)" xlink:href="#radial-gradient-2"/>
    <radialGradient id="radial-gradient-21" cx="2130.6" cy="4063.3" fx="2130.6" fy="4063.3" r="58.6" gradientTransform="matrix(1,0,0,1,0,0)" xlink:href="#radial-gradient-2"/>
    <radialGradient id="radial-gradient-22" cx="2239.7" cy="4063.3" fx="2239.7" fy="4063.3" r="58.6" gradientTransform="matrix(1,0,0,1,0,0)" xlink:href="#radial-gradient-2"/>
    <clipPath id="clippath-4">
      <rect class="cls-7" x="0" y="3200" width="1500" height="1500"/>
    </clipPath>
    <radialGradient id="radial-gradient-23" cx="750" cy="3950" fx="750" fy="3950" r="545.7" gradientTransform="translate(-2508.9 4700) rotate(-90) scale(1 .8)" xlink:href="#radial-gradient-5"/>
    <radialGradient id="radial-gradient-24" cx="750" cy="3950" fx="750" fy="3950" r="489.6" gradientTransform="translate(0 691.1) scale(1 .8)" xlink:href="#radial-gradient-2"/>
    <clipPath id="clippath-5">
      <rect class="cls-7" x="-1600" y="3200" width="1500" height="1500"/>
    </clipPath>
    <radialGradient id="radial-gradient-25" cx="-850" cy="3950" fx="-850" fy="3950" r="513.9" gradientTransform="matrix(1,0,0,1,0,0)" xlink:href="#radial-gradient-5"/>
    <radialGradient id="radial-gradient-26" cx="-850" cy="3950" fx="-850" fy="3950" r="468.1" gradientTransform="matrix(1,0,0,1,0,0)" xlink:href="#radial-gradient-2"/>
    <clipPath id="clippath-6">
      <rect class="cls-7" x="1600" y="1600" width="1500" height="1500"/>
    </clipPath>
    <radialGradient id="radial-gradient-27" cx="2350" cy="2350" fx="2350" fy="2350" r="510.9" gradientTransform="translate(0 120.8) scale(1 .9)" xlink:href="#radial-gradient-5"/>
    <radialGradient id="radial-gradient-28" cx="2350" cy="2350" fx="2350" fy="2350" r="461.5" gradientTransform="translate(0 120.8) scale(1 .9)" xlink:href="#radial-gradient-2"/>
    <clipPath id="clippath-7">
      <rect class="cls-7" x="0" y="1600" width="1500" height="1500"/>
    </clipPath>
    <radialGradient id="radial-gradient-29" cx="750" cy="2305.2" fx="750" fy="2305.2" r="333.9" gradientTransform="translate(0 -496) scale(1 1.2)" xlink:href="#radial-gradient-2"/>
    <radialGradient id="radial-gradient-30" cx="750" cy="2350" fx="750" fy="2350" r="337" gradientTransform="matrix(1,0,0,1,0,0)" xlink:href="#radial-gradient-5"/>
    <clipPath id="clippath-8">
      <rect class="cls-7" x="-1600" y="1600" width="1500" height="1500"/>
    </clipPath>
    <radialGradient id="radial-gradient-31" cx="-850" cy="2350" fx="-850" fy="2350" r="423.3" gradientTransform="translate(-992.2 600.4) rotate(-33.6) scale(1 .7)" xlink:href="#radial-gradient-5"/>
    <radialGradient id="radial-gradient-32" cx="-782.6" cy="2297.6" fx="-782.6" fy="2297.6" r="306.3" gradientTransform="translate(0 -891.3) scale(1 1.4)" xlink:href="#radial-gradient-2"/>
    <clipPath id="clippath-9">
      <rect class="cls-7" x="1600" width="1500" height="1500"/>
    </clipPath>
    <radialGradient id="radial-gradient-33" cx="2350" cy="750" fx="2350" fy="750" r="294.4" gradientTransform="translate(929.1 3100) rotate(-90) scale(1 1.9)" xlink:href="#radial-gradient-2"/>
    <radialGradient id="radial-gradient-34" cx="2350" cy="750" fx="2350" fy="750" r="263.6" gradientTransform="translate(0 -670.9) scale(1 1.9)" xlink:href="#radial-gradient-2"/>
    <radialGradient id="radial-gradient-35" cx="2350" cy="726.8" fx="2350" fy="726.8" r="212" gradientTransform="translate(973 3076.8) rotate(-90) scale(1 1.9)" xlink:href="#radial-gradient-2"/>
  </defs>
  <g id="Icon_12" data-name="Icon 12">
    <g id="Graphic_Element" data-name="Graphic Element">
      <g>
        <g>
          <path class="cls-28" d="M2703.1,5532.3c0-.2,0-.5,0-.7,0-.6,0-1.1-.1-1.7,0,0,0-.2,0-.3-.4-4.3-1.5-8.4-3.3-12.2,0,0,0-.1,0-.2-.2-.5-.5-1.1-.8-1.6,0-.2-.2-.4-.3-.5-.2-.4-.5-.9-.8-1.3-.2-.3-.3-.5-.5-.8,0,0,0-.2-.1-.2l-20.7-22.3-69.2-70.2v-116.3c0-36.4-29.6-66-66-66h-113.5l-35.6-36.2c-11.2-11.4-26.2-17.6-42.1-17.6s-30.9,6.3-42.1,17.6l-35.6,36.2h-113.5c-36.4,0-66,29.6-66,66v116.3l-69.2,70.2-20.7,22.2c-.3.4-.6.9-.8,1.4-.1.2-.3.5-.4.7-.2.4-.4.8-.6,1.2-.2.4-.4.7-.5,1.1-.1.3-.2.5-.3.8-.2.5-.4,1-.6,1.5,0,0,0,.1,0,.2-1.5,3.9-2.4,8.1-2.6,12.4,0,.1,0,.3,0,.4,0,.3,0,.6,0,.9v285.7c0,50.6,38.9,92.3,88.3,96.7l30.8.4h470.7l31.5-.8c47.8-6.1,84.8-47,84.8-96.3v-285.7c0-.3,0-.5,0-.8Z"/>
          <path class="cls-38" d="M2029.9,5539.1v-6.1c0-3.3,2.6-5.9,5.9-5.9h628.4c3.3,0,5.9,2.6,5.9,5.9v6.1h-640.2Z"/>
          <rect class="cls-38" x="2034.9" y="5532.1" width="630.2" height="2"/>
        </g>
        <path class="cls-32" d="M2350,5705.5l-315.1-172.4v285.7c0,32.7,26.5,59.1,59.1,59.1h511.9c32.7,0,59.1-26.5,59.1-59.1v-285.7l-315.1,172.4Z"/>
        <g>
          <path class="cls-38" d="M2094,5883.9c-35.9,0-65.1-29.2-65.1-65.1v-285.7c0-2.1,1.1-4.1,2.9-5.2.9-.5,1.9-.8,3-.8s2,.3,2.9.7l312.2,170.8,312.2-170.8c.9-.5,1.9-.7,2.9-.7s2.1.3,3.1.8c1.8,1.1,2.9,3,2.9,5.1v285.7c0,35.9-29.2,65.1-65.1,65.1h-511.9ZM2040.9,5818.8c0,29.3,23.8,53.1,53.1,53.1h511.9c29.3,0,53.1-23.8,53.1-53.1v-275.6l-306.2,167.6c-.9.5-1.9.7-2.9.7s-2-.3-2.9-.7l-306.2-167.6v275.6Z"/>
          <path class="cls-38" d="M2606,5878.9h-511.9c-33.1,0-60.1-27-60.1-60.1v-285.7c0-.3.2-.7.5-.8.3-.2.7-.2,1,0l314.6,172.1,314.6-172.1c.3-.2.7-.2,1,0,.3.2.5.5.5.8v285.7c0,33.1-27,60.1-60.1,60.1ZM2035.9,5534.8v284c0,32.1,26.1,58.1,58.1,58.1h511.9c32.1,0,58.1-26.1,58.1-58.1v-284l-313.6,171.6c-.3.2-.7.2-1,0l-313.6-171.6Z"/>
        </g>
        <g>
          <path class="cls-33" d="M2031.5,5536.9c-2.4-1.3-2.9-4.6-1-6.5l300.9-305.5c4.9-5,11.6-7.8,18.6-7.8s0,0,0,0c7,0,13.7,2.8,18.6,7.8l300.9,305.5c1.9,2,1.4,5.2-1,6.5l-318.5,174.3-318.5-174.3Z"/>
          <g>
            <path class="cls-38" d="M2350,5711.5c-1,0-2-.3-2.9-.7l-315.1-172.4c-1.6-.9-2.8-2.5-3-4.3-.3-1.9.3-3.8,1.6-5.1l300.1-304.7c5.1-5.2,12-8.1,19.3-8.1s14.2,2.9,19.3,8.1l300.1,304.7c1.3,1.3,1.9,3.2,1.7,5.1-.3,1.9-1.4,3.5-3.1,4.4l-315.1,172.4c-.9.5-1.9.7-2.9.7ZM2350,5698.7l305.3-167-294.5-299.1c-2.9-2.9-6.7-4.5-10.8-4.5s-7.9,1.6-10.8,4.5l-294.5,299.1,305.3,167Z"/>
            <path class="cls-38" d="M2350,5706.5c-.2,0-.3,0-.5-.1l-315.1-172.4c-.3-.1-.5-.4-.5-.7,0-.3,0-.6.3-.8l300.1-304.7c4.2-4.3,9.8-6.6,15.7-6.6s11.6,2.3,15.7,6.6l300.1,304.7c.2.2.3.5.3.8,0,.3-.2.6-.5.7l-315.1,172.4c-.1,0-.3.1-.5.1ZM2036.5,5532.9l313.5,171.5,313.5-171.5-299.1-303.8c-3.8-3.9-8.9-6-14.3-6s-10.5,2.1-14.3,6l-299.1,303.8Z"/>
          </g>
        </g>
        <path class="cls-38" d="M2158.8,5269.9c-18.8,0-34,15.2-34,34v278.3l225.2,123.2,225.2-123.2v-278.3c0-18.8-15.2-34-34-34h-382.5Z"/>
        <g>
          <polygon class="cls-38" points="2086.3 5879.3 2227.1 5632.5 2237.5 5638.4 2097.9 5883.2 2086.3 5879.3"/>
          <rect class="cls-38" x="2024.9" y="5757.9" width="274.2" height="2" transform="translate(-3911.2 4781.7) rotate(-60.3)"/>
        </g>
        <g>
          <polygon class="cls-38" points="2465.3 5638.4 2475.7 5632.5 2616.5 5879.3 2605.1 5883.5 2465.3 5638.4"/>
          <rect class="cls-38" x="2539.9" y="5621.8" width="2" height="274.2" transform="translate(-2519.5 2015.4) rotate(-29.7)"/>
        </g>
      </g>
    </g>
  </g>
  <g id="Icon_11" data-name="Icon 11">
    <g id="Graphic_Element-2" data-name="Graphic Element">
      <g>
        <g>
          <path class="cls-34" d="M965.2,5524.3h-22.3c-22.4,0-41.4-16.4-44.7-38.6l-2.4-16.1c-3.3-22.2-22.3-38.6-44.7-38.6h-202.1c-22.4,0-41.4,16.4-44.7,38.6l-2.4,16.1c-3.3,22.2-22.3,38.6-44.7,38.6h-22.3c-22,0-40.8,15.8-44.6,37.5l-31.1,179.1c-4.8,27.7,16.5,53,44.6,53h492.6c28.1,0,49.4-25.3,44.6-53l-31.1-179.1c-3.8-21.7-22.6-37.5-44.6-37.5Z"/>
          <g>
            <path class="cls-38" d="M503.7,5799.9c-15.2,0-29.5-6.7-39.2-18.3-9.8-11.6-13.9-26.8-11.3-41.8l31.1-179.1c4.3-24.6,25.5-42.5,50.5-42.5h22.3c19.3,0,35.9-14.4,38.8-33.4l2.4-16.1c3.7-24.9,25.5-43.7,50.7-43.7h202.1c25.2,0,47,18.8,50.7,43.7l2.4,16.1c2.8,19.1,19.5,33.4,38.8,33.4h22.3c25,0,46.2,17.9,50.5,42.5l31.1,179.1c2.6,14.9-1.5,30.2-11.3,41.8-9.8,11.6-24.1,18.3-39.2,18.3h-492.6ZM534.8,5530.4c-19.1,0-35.4,13.7-38.6,32.5l-31.1,179.1c-2,11.4,1.2,23.1,8.6,31.9,7.5,8.9,18.4,14,30,14h492.6c11.6,0,22.5-5.1,30-14,7.5-8.9,10.6-20.5,8.6-31.9l-31.1-179.1c-3.3-18.8-19.5-32.5-38.6-32.5h-22.3c-25.2,0-47-18.8-50.7-43.7l-2.4-16.1c-2.8-19.1-19.5-33.4-38.8-33.4h-202.1c-19.3,0-35.9,14.4-38.8,33.4l-2.4,16.1c-3.7,24.9-25.5,43.7-50.7,43.7h-22.3Z"/>
            <path class="cls-38" d="M996.3,5794.9h-492.6c-13.7,0-26.6-6-35.4-16.5-8.8-10.5-12.5-24.2-10.2-37.7l31.1-179.1c3.9-22.2,23-38.4,45.6-38.4h22.3c21.7,0,40.5-16.2,43.7-37.7l2.4-16.1c3.4-22.5,23-39.5,45.8-39.5h202.1c22.7,0,42.4,17,45.8,39.5l2.4,16.1c3.2,21.5,22,37.7,43.7,37.7h22.3c22.6,0,41.7,16.1,45.6,38.4l31.1,179.1c2.3,13.5-1.4,27.2-10.2,37.7-8.8,10.5-21.7,16.5-35.4,16.5ZM534.8,5525.4c-21.5,0-39.9,15.4-43.5,36.6l-31.1,179.1c-2.2,12.9,1.3,26,9.7,36s20.7,15.7,33.8,15.7h492.6c13.1,0,25.4-5.7,33.8-15.7,8.4-10,12-23.1,9.7-36l-31.1-179.1c-3.7-21.2-22-36.6-43.6-36.6h-22.3c-22.7,0-42.4-17-45.8-39.5l-2.4-16.1c-3.2-21.5-22-37.7-43.7-37.7h-202.1c-21.7,0-40.5,16.2-43.7,37.7l-2.4,16.1c-3.4,22.5-23,39.5-45.8,39.5h-22.3Z"/>
          </g>
          <path class="cls-29" d="M1105.2,5445.4c-29.4-68.9-80.2-120.3-146.8-148.4-50.4-21.3-93.7-22.9-105.8-22.9s-1.2,0-1.5,0h-202.1c-.3,0-.9,0-1.5,0-12.1,0-55.5,1.7-105.8,22.9-66.6,28.1-117.3,79.4-146.8,148.4-6.1,14.2-4.6,30.4,3.9,43.3,8.5,12.9,22.9,20.6,38.3,20.6h49.3c-14.2,11.4-24.4,27.8-27.7,47l-31.1,179.1c-3.9,22.5,2.3,45.5,17,62.9,14.7,17.5,36.3,27.5,59.1,27.5h492.6c22.9,0,44.4-10,59.1-27.5s20.9-40.4,17-62.9l-31.1-179.1c-3.3-19.1-13.5-35.6-27.7-47h49.3c15.5,0,29.8-7.7,38.3-20.6,8.5-12.9,10-29.1,3.9-43.3Z"/>
          <path class="cls-35" d="M1075.8,5458c-66.7-156.1-224.4-151.9-224.4-151.9h-202.8s-157.7-4.2-224.4,151.9c-3.9,9.2,2.9,19.4,12.8,19.4h115.5c5.7,0,10.8-3.7,12.6-9.2l5.4-17.2c11.3-35.7,44.4-60,81.9-60h195.2c37.5,0,70.6,24.3,81.9,60l5.4,17.2c1.7,5.5,6.8,9.2,12.6,9.2h115.5c10,0,16.8-10.2,12.8-19.4Z"/>
          <g>
            <path class="cls-38" d="M947.4,5483.4c-8.4,0-15.8-5.4-18.3-13.4l-5.4-17.2c-10.5-33.4-41.1-55.8-76.1-55.8h-195.2c-35,0-65.6,22.4-76.1,55.8l-5.4,17.2c-2.5,8-9.9,13.4-18.3,13.4h-115.5c-6.7,0-13-3.4-16.7-9-3.7-5.6-4.3-12.6-1.7-18.8,35.3-82.6,95.9-120.5,140.6-137.7,43.9-17,81.3-17.8,88.4-17.8s1,0,1.1,0h202.6c.2,0,.5,0,1,0,7.1,0,44.5.9,88.4,17.8,44.7,17.3,105.3,55.2,140.6,137.7,2.6,6.2,2,13.2-1.7,18.8-3.7,5.6-10,9-16.7,9h-115.5ZM847.6,5384.9c40.3,0,75.5,25.8,87.6,64.2l5.4,17.2c.9,3,3.7,5,6.8,5h115.5c2.7,0,5.1-1.3,6.6-3.6,1.5-2.2,1.7-5,.7-7.4-33.6-78.7-91.3-114.8-133.7-131.2-41.9-16.2-77.3-17-84-17s-.8,0-.9,0h-.1s0,0,0,0h-202.9s-.3,0-.9,0c-6.7,0-42.2.8-84.1,17-42.5,16.4-100.1,52.5-133.7,131.2-1,2.4-.8,5.2.7,7.4,1.5,2.2,3.9,3.6,6.6,3.6h115.5c3.1,0,5.9-2,6.8-5l5.4-17.2c12.1-38.4,47.3-64.2,87.6-64.2h195.2Z"/>
            <path class="cls-38" d="M1062.9,5478.4h-115.5c-6.2,0-11.7-4-13.6-9.9l-5.4-17.2c-11.2-35.5-43.7-59.3-80.9-59.3h-195.2c-37.2,0-69.7,23.8-80.9,59.3l-5.4,17.2c-1.9,5.9-7.3,9.9-13.6,9.9h-115.5c-5,0-9.7-2.5-12.5-6.7-2.8-4.2-3.3-9.5-1.3-14.1,34.6-81,94-118.1,137.8-135,47.4-18.3,87.2-17.5,87.6-17.5h202.8c.4,0,40.2-.8,87.6,17.5,43.8,16.9,103.2,54.1,137.8,135h0c2,4.6,1.5,9.9-1.3,14.1-2.8,4.2-7.5,6.7-12.5,6.7ZM652.4,5389.9h195.2c38.1,0,71.4,24.4,82.9,60.7l5.4,17.2c1.6,5.1,6.3,8.5,11.6,8.5h115.5c4.3,0,8.4-2.2,10.8-5.8,2.4-3.6,2.8-8.2,1.1-12.1-34.3-80.3-93.2-117.1-136.5-133.9-47-18.2-86.5-17.4-86.9-17.4h-202.8c-.4,0-39.9-.8-86.9,17.4-43.4,16.8-102.2,53.6-136.5,133.9-1.7,4-1.3,8.5,1.1,12.1,2.4,3.6,6.4,5.8,10.8,5.8h115.5c5.3,0,10-3.4,11.6-8.5l5.4-17.2c11.5-36.3,44.8-60.7,82.9-60.7Z"/>
          </g>
        </g>
        <circle class="cls-38" cx="749.7" cy="5621.8" r="116.3"/>
      </g>
    </g>
  </g>
  <g id="Icon_10" data-name="Icon 10">
    <g id="Graphic_Element-3" data-name="Graphic Element">
      <g>
        <path class="cls-30" d="M-1029.6,5913.7c-56.9,0-103.2-46.3-103.2-103.2v-521c0-56.9,46.3-103.2,103.2-103.2h281.3c25.8,0,50.2,10.1,68.4,28.3l84.3,84.3c18.3,18.3,28.3,42.6,28.3,68.4v443.1c0,56.9-46.3,103.2-103.2,103.2h-359.1Z"/>
        <path class="cls-36" d="M-1029.6,5881.7c-39.3,0-71.2-32-71.2-71.2v-521c0-39.3,32-71.2,71.2-71.2h281.3c17.3,0,33.6,6.7,45.8,19l84.3,84.3c12.2,12.2,19,28.5,19,45.8v443.1c0,39.3-32,71.2-71.2,71.2h-359.1Z"/>
        <g>
          <path class="cls-38" d="M-1029.6,5882.8c-39.9,0-72.3-32.4-72.3-72.3v-521c0-39.9,32.4-72.3,72.3-72.3h281.3c17.6,0,34.1,6.8,46.6,19.3l84.3,84.3c12.4,12.4,19.3,29,19.3,46.6v443.1c0,39.9-32.4,72.3-72.3,72.3h-359.1ZM-1029.6,5229.4c-33.2,0-60.2,27-60.2,60.2v521c0,33.2,27,60.2,60.2,60.2h359.1c33.2,0,60.2-27,60.2-60.2v-443.1c0-14.3-5.6-27.8-15.7-38l-84.3-84.3c-10.1-10.1-23.6-15.7-38-15.7h-281.3Z"/>
          <path class="cls-38" d="M-670.4,5877.8h-359.1c-37.1,0-67.3-30.2-67.3-67.3v-521c0-37.1,30.2-67.3,67.3-67.3h281.3c16.3,0,31.5,6.3,43,17.8l84.3,84.3c11.5,11.5,17.8,26.8,17.8,43v443.1c0,37.1-30.2,67.3-67.3,67.3ZM-1029.6,5224.4c-35.9,0-65.2,29.2-65.2,65.2v521c0,35.9,29.2,65.2,65.2,65.2h359.1c35.9,0,65.2-29.2,65.2-65.2v-443.1c0-15.7-6.1-30.4-17.2-41.5l-84.3-84.3c-11.1-11.1-25.8-17.2-41.5-17.2h-281.3Z"/>
        </g>
        <g>
          <path class="cls-38" d="M-712.3,5372.3c-22.6,0-40.9-18.4-40.9-40.9v-113.1h5c17.3,0,33.6,6.7,45.8,19l84.3,84.3c12.2,12.2,19,28.5,19,45.7v5s-113.1,0-113.1,0Z"/>
          <path class="cls-38" d="M-706,5240.8c-11.2-11.2-26.4-17.5-42.3-17.5v108.1c0,19.9,16.1,35.9,35.9,35.9h108.1c0-15.8-6.3-31-17.5-42.2l-84.3-84.3Z"/>
        </g>
      </g>
    </g>
  </g>
  <g id="Icon_9" data-name="Icon 9">
    <g id="Graphic_Element-4" data-name="Graphic Element">
      <g>
        <path class="cls-31" d="M2610.5,3701h-39.5c-1.3-32.8-28.4-59-61.4-59s-60.1,26.2-61.4,59h-198.5c-1.3-32.8-28.4-59-61.4-59s-60.1,26.2-61.4,59h-37.1c-54.3,0-98.5,44.2-98.5,98.5v359c0,54.3,44.2,98.5,98.5,98.5h520.9c54.3,0,98.5-44.2,98.5-98.5v-359c0-54.3-44.2-98.5-98.5-98.5Z"/>
        <rect class="cls-26" x="2023.1" y="3733" width="653.9" height="491.9" rx="66.5" ry="66.5"/>
        <g>
          <path class="cls-38" d="M2089.4,4231c-39.9,0-72.3-32.4-72.3-72.3v-359.4c0-39.9,32.4-72.3,72.3-72.3h521.3c39.9,0,72.3,32.4,72.3,72.3v359.4c0,39.9-32.4,72.3-72.3,72.3h-521.3ZM2089.4,3739c-33.2,0-60.3,27-60.3,60.3v359.4c0,33.2,27,60.3,60.3,60.3h521.3c33.2,0,60.3-27,60.3-60.3v-359.4c0-33.2-27-60.3-60.3-60.3h-521.3Z"/>
          <path class="cls-38" d="M2610.6,4226h-521.3c-37.1,0-67.3-30.2-67.3-67.3v-359.4c0-37.1,30.2-67.3,67.3-67.3h521.3c37.1,0,67.3,30.2,67.3,67.3v359.4c0,37.1-30.2,67.3-67.3,67.3ZM2089.4,3734c-36,0-65.3,29.3-65.3,65.3v359.4c0,36,29.3,65.3,65.3,65.3h521.3c36,0,65.3-29.3,65.3-65.3v-359.4c0-36-29.3-65.3-65.3-65.3h-521.3Z"/>
        </g>
        <path class="cls-38" d="M2188.1,3674h0c16.3,0,29.5,13.2,29.5,29.5v29.5h-59v-29.5c0-16.3,13.2-29.5,29.5-29.5Z"/>
        <path class="cls-38" d="M2509.5,3674h0c16.3,0,29.5,13.2,29.5,29.5v29.5h-59v-29.5c0-16.3,13.2-29.5,29.5-29.5Z"/>
        <rect class="cls-22" x="2088.5" y="3810.4" width="84.2" height="84.2" rx="23" ry="23"/>
        <rect class="cls-19" x="2197.6" y="3810.4" width="84.2" height="84.2" rx="23" ry="23"/>
        <rect class="cls-18" x="2306.7" y="3810.4" width="84.2" height="84.2" rx="23" ry="23"/>
        <rect class="cls-17" x="2415.8" y="3810.4" width="84.2" height="84.2" rx="23" ry="23"/>
        <rect class="cls-20" x="2524.9" y="3810.4" width="84.2" height="84.2" rx="23" ry="23"/>
        <rect class="cls-21" x="2088.5" y="3915.8" width="84.2" height="84.2" rx="23" ry="23"/>
        <rect class="cls-25" x="2197.6" y="3915.8" width="84.2" height="84.2" rx="23" ry="23"/>
        <rect class="cls-24" x="2306.7" y="3915.8" width="84.2" height="84.2" rx="23" ry="23"/>
        <rect class="cls-23" x="2415.8" y="3915.8" width="84.2" height="84.2" rx="23" ry="23"/>
        <rect class="cls-15" x="2524.9" y="3915.8" width="84.2" height="84.2" rx="23" ry="23"/>
        <rect class="cls-16" x="2088.5" y="4021.2" width="84.2" height="84.2" rx="23" ry="23"/>
        <rect class="cls-13" x="2197.6" y="4021.2" width="84.2" height="84.2" rx="23" ry="23"/>
        <path class="cls-38" d="M2149.4,3895.6h-37.5c-13.4,0-24.3-10.9-24.3-24.3v-37.5c0-13.4,10.9-24.3,24.3-24.3h37.5c13.4,0,24.3,10.9,24.3,24.3v37.5c0,13.4-10.9,24.3-24.3,24.3ZM2111.9,3811.4c-12.3,0-22.4,10-22.4,22.4v37.5c0,12.3,10,22.4,22.4,22.4h37.5c12.3,0,22.4-10,22.4-22.4v-37.5c0-12.3-10-22.4-22.4-22.4h-37.5Z"/>
        <path class="cls-38" d="M2258.5,3895.6h-37.5c-13.4,0-24.3-10.9-24.3-24.3v-37.5c0-13.4,10.9-24.3,24.3-24.3h37.5c13.4,0,24.3,10.9,24.3,24.3v37.5c0,13.4-10.9,24.3-24.3,24.3ZM2221,3811.4c-12.3,0-22.4,10-22.4,22.4v37.5c0,12.3,10,22.4,22.4,22.4h37.5c12.3,0,22.4-10,22.4-22.4v-37.5c0-12.3-10-22.4-22.4-22.4h-37.5Z"/>
        <path class="cls-38" d="M2367.5,3895.6h-37.5c-13.4,0-24.3-10.9-24.3-24.3v-37.5c0-13.4,10.9-24.3,24.3-24.3h37.5c13.4,0,24.3,10.9,24.3,24.3v37.5c0,13.4-10.9,24.3-24.3,24.3ZM2330.1,3811.4c-12.3,0-22.4,10-22.4,22.4v37.5c0,12.3,10,22.4,22.4,22.4h37.5c12.3,0,22.4-10,22.4-22.4v-37.5c0-12.3-10-22.4-22.4-22.4h-37.5Z"/>
        <path class="cls-38" d="M2476.6,3895.6h-37.5c-13.4,0-24.3-10.9-24.3-24.3v-37.5c0-13.4,10.9-24.3,24.3-24.3h37.5c13.4,0,24.3,10.9,24.3,24.3v37.5c0,13.4-10.9,24.3-24.3,24.3ZM2439.1,3811.4c-12.3,0-22.4,10-22.4,22.4v37.5c0,12.3,10,22.4,22.4,22.4h37.5c12.3,0,22.4-10,22.4-22.4v-37.5c0-12.3-10-22.4-22.4-22.4h-37.5Z"/>
        <path class="cls-38" d="M2585.7,3895.6h-37.5c-13.4,0-24.3-10.9-24.3-24.3v-37.5c0-13.4,10.9-24.3,24.3-24.3h37.5c13.4,0,24.3,10.9,24.3,24.3v37.5c0,13.4-10.9,24.3-24.3,24.3ZM2548.2,3811.4c-12.3,0-22.4,10-22.4,22.4v37.5c0,12.3,10,22.4,22.4,22.4h37.5c12.3,0,22.4-10,22.4-22.4v-37.5c0-12.3-10-22.4-22.4-22.4h-37.5Z"/>
        <path class="cls-38" d="M2149.4,4001h-37.5c-13.4,0-24.3-10.9-24.3-24.3v-37.5c0-13.4,10.9-24.3,24.3-24.3h37.5c13.4,0,24.3,10.9,24.3,24.3v37.5c0,13.4-10.9,24.3-24.3,24.3ZM2111.9,3916.8c-12.3,0-22.4,10-22.4,22.4v37.5c0,12.3,10,22.4,22.4,22.4h37.5c12.3,0,22.4-10,22.4-22.4v-37.5c0-12.3-10-22.4-22.4-22.4h-37.5Z"/>
        <path class="cls-38" d="M2258.5,4001h-37.5c-13.4,0-24.3-10.9-24.3-24.3v-37.5c0-13.4,10.9-24.3,24.3-24.3h37.5c13.4,0,24.3,10.9,24.3,24.3v37.5c0,13.4-10.9,24.3-24.3,24.3ZM2221,3916.8c-12.3,0-22.4,10-22.4,22.4v37.5c0,12.3,10,22.4,22.4,22.4h37.5c12.3,0,22.4-10,22.4-22.4v-37.5c0-12.3-10-22.4-22.4-22.4h-37.5Z"/>
        <path class="cls-38" d="M2367.5,4001h-37.5c-13.4,0-24.3-10.9-24.3-24.3v-37.5c0-13.4,10.9-24.3,24.3-24.3h37.5c13.4,0,24.3,10.9,24.3,24.3v37.5c0,13.4-10.9,24.3-24.3,24.3ZM2330.1,3916.8c-12.3,0-22.4,10-22.4,22.4v37.5c0,12.3,10,22.4,22.4,22.4h37.5c12.3,0,22.4-10,22.4-22.4v-37.5c0-12.3-10-22.4-22.4-22.4h-37.5Z"/>
        <path class="cls-38" d="M2476.6,4001h-37.5c-13.4,0-24.3-10.9-24.3-24.3v-37.5c0-13.4,10.9-24.3,24.3-24.3h37.5c13.4,0,24.3,10.9,24.3,24.3v37.5c0,13.4-10.9,24.3-24.3,24.3ZM2439.1,3916.8c-12.3,0-22.4,10-22.4,22.4v37.5c0,12.3,10,22.4,22.4,22.4h37.5c12.3,0,22.4-10,22.4-22.4v-37.5c0-12.3-10-22.4-22.4-22.4h-37.5Z"/>
        <path class="cls-38" d="M2585.7,4001h-37.5c-13.4,0-24.3-10.9-24.3-24.3v-37.5c0-13.4,10.9-24.3,24.3-24.3h37.5c13.4,0,24.3,10.9,24.3,24.3v37.5c0,13.4-10.9,24.3-24.3,24.3ZM2548.2,3916.8c-12.3,0-22.4,10-22.4,22.4v37.5c0,12.3,10,22.4,22.4,22.4h37.5c12.3,0,22.4-10,22.4-22.4v-37.5c0-12.3-10-22.4-22.4-22.4h-37.5Z"/>
        <path class="cls-38" d="M2149.4,4106.4h-37.5c-13.4,0-24.3-10.9-24.3-24.3v-37.5c0-13.4,10.9-24.3,24.3-24.3h37.5c13.4,0,24.3,10.9,24.3,24.3v37.5c0,13.4-10.9,24.3-24.3,24.3ZM2111.9,4022.2c-12.3,0-22.4,10-22.4,22.4v37.5c0,12.3,10,22.4,22.4,22.4h37.5c12.3,0,22.4-10,22.4-22.4v-37.5c0-12.3-10-22.4-22.4-22.4h-37.5Z"/>
        <path class="cls-38" d="M2258.5,4106.4h-37.5c-13.4,0-24.3-10.9-24.3-24.3v-37.5c0-13.4,10.9-24.3,24.3-24.3h37.5c13.4,0,24.3,10.9,24.3,24.3v37.5c0,13.4-10.9,24.3-24.3,24.3ZM2221,4022.2c-12.3,0-22.4,10-22.4,22.4v37.5c0,12.3,10,22.4,22.4,22.4h37.5c12.3,0,22.4-10,22.4-22.4v-37.5c0-12.3-10-22.4-22.4-22.4h-37.5Z"/>
      </g>
    </g>
  </g>
  <g id="Icon_8" data-name="Icon 8">
    <g id="Graphic_Element-5" data-name="Graphic Element">
      <g>
        <rect class="cls-4" x="512.5" y="3590.9" width="475" height="718.2" rx="86.7" ry="86.7" transform="translate(4700 3200) rotate(90)"/>
        <rect class="cls-9" x="422.9" y="3744.5" width="654.2" height="411" rx="54.7" ry="54.7"/>
        <g>
          <path class="cls-38" d="M478.3,4161.3c-33.7,0-61.2-27.5-61.2-61.2v-300.3c0-33.7,27.5-61.2,61.2-61.2h543.4c33.7,0,61.2,27.5,61.2,61.2v300.3c0,33.7-27.5,61.2-61.2,61.2H478.3ZM478.3,3750.3c-27.3,0-49.5,22.2-49.5,49.5v300.3c0,27.3,22.2,49.5,49.5,49.5h543.4c27.3,0,49.5-22.2,49.5-49.5v-300.3c0-27.3-22.2-49.5-49.5-49.5H478.3Z"/>
          <path class="cls-38" d="M1021.7,4156.3H478.3c-31,0-56.2-25.2-56.2-56.2v-300.3c0-31,25.2-56.2,56.2-56.2h543.4c31,0,56.2,25.2,56.2,56.2v300.3c0,31-25.2,56.2-56.2,56.2ZM478.3,3745.3c-30.1,0-54.5,24.5-54.5,54.5v300.3c0,30.1,24.5,54.5,54.5,54.5h543.4c30.1,0,54.5-24.5,54.5-54.5v-300.3c0-30.1-24.5-54.5-54.5-54.5H478.3Z"/>
        </g>
        <rect class="cls-38" x="422.9" y="3836.6" width="654.2" height="76.8"/>
        <rect class="cls-38" x="496.6" y="3985.6" width="122.8" height="79.6" rx="7.6" ry="7.6"/>
      </g>
    </g>
  </g>
  <g id="Icon_7" data-name="Icon 7">
    <g id="Graphic_Element-6" data-name="Graphic Element">
      <g>
        <path class="cls-6" d="M-850,4308.9c-48.4,0-95.4-9.5-139.7-28.2-42.7-18.1-81.1-44-114.1-76.9-32.9-33-58.8-71.3-76.9-114.1-18.7-44.3-28.2-91.3-28.2-139.7s9.5-95.4,28.2-139.7c18.1-42.7,44-81.1,76.9-114.1s71.3-58.8,114.1-76.9c44.3-18.7,91.3-28.2,139.7-28.2s95.4,9.5,139.7,28.2c42.7,18.1,81.1,44,114.1,76.9s58.8,71.3,76.9,114.1c18.7,44.3,28.2,91.3,28.2,139.7s-9.5,95.4-28.2,139.7c-18.1,42.7-44,81.1-76.9,114.1-32.9,32.9-71.3,58.8-114.1,76.9-44.3,18.7-91.3,28.2-139.7,28.2Z"/>
        <path class="cls-12" d="M-850,3623.1c-180.5,0-326.9,146.4-326.9,326.9s146.4,326.9,326.9,326.9,326.9-146.4,326.9-326.9-146.4-326.9-326.9-326.9Z"/>
        <g>
          <path class="cls-38" d="M-850,4282.9c-183.6,0-332.9-149.3-332.9-332.9s149.3-332.9,332.9-332.9,332.9,149.3,332.9,332.9-149.3,332.9-332.9,332.9ZM-850,3629.1c-176.9,0-320.9,143.9-320.9,320.9s143.9,320.9,320.9,320.9,320.9-143.9,320.9-320.9-143.9-320.9-320.9-320.9Z"/>
          <path class="cls-38" d="M-850,4277.9c-180.8,0-327.9-147.1-327.9-327.9s147.1-327.9,327.9-327.9,327.9,147.1,327.9,327.9-147.1,327.9-327.9,327.9ZM-850,3624.1c-179.7,0-325.9,146.2-325.9,325.9s146.2,325.9,325.9,325.9,325.9-146.2,325.9-325.9-146.2-325.9-325.9-325.9Z"/>
        </g>
        <path class="cls-38" d="M-727.5,3917.6l-195.9-113.1c-24.9-14.4-56,3.6-56,32.4v226.2c0,28.8,31.1,46.7,56,32.4l195.9-113.1c12.5-7.2,18.7-19.8,18.7-32.4s-6.2-25.2-18.7-32.4Z"/>
      </g>
    </g>
  </g>
  <g id="Icon_6" data-name="Icon 6">
    <g id="Graphic_Element-7" data-name="Graphic Element">
      <g>
        <path class="cls-5" d="M2116.6,2647c-69.1,0-125.3-56.2-125.3-125.3v-247.4c0-69.1,56.2-125.3,125.3-125.3h65.5l5.9-35.9c5.7-34.7,35.4-59.9,70.6-59.9h183c35.2,0,64.9,25.2,70.6,59.9l5.9,35.9h65.5c69.1,0,125.3,56.2,125.3,125.3v247.4c0,69.1-56.2,125.3-125.3,125.3h-466.9Z"/>
        <path class="cls-10" d="M2488.5,2167.1l-8-49c-3.1-19.1-19.6-33.1-39-33.1h-183c-19.4,0-35.9,14-39,33.1l-8,49c-1.3,7.9-8.1,13.7-16.2,13.7h-78.7c-51.6,0-93.3,41.8-93.3,93.3v247.4c0,51.6,41.8,93.3,93.3,93.3h466.9c51.6,0,93.3-41.8,93.3-93.3v-247.4c0-51.6-41.8-93.3-93.3-93.3h-78.7c-8,0-14.9-5.8-16.2-13.7Z"/>
        <g>
          <path class="cls-38" d="M2116.6,2621.1c-54.8,0-99.5-44.6-99.5-99.5v-247.4c0-54.8,44.6-99.5,99.5-99.5h78.7c5,0,9.3-3.6,10.1-8.6l8-49c3.6-22.2,22.6-38.3,45-38.3h183c22.5,0,41.4,16.1,45,38.3l8,49c.8,5,5.1,8.6,10.1,8.6h78.7c54.8,0,99.5,44.6,99.5,99.5v247.4c0,54.8-44.6,99.5-99.5,99.5h-466.9ZM2116.6,2187c-48.1,0-87.2,39.1-87.2,87.2v247.4c0,48.1,39.1,87.2,87.2,87.2h466.9c48.1,0,87.2-39.1,87.2-87.2v-247.4c0-48.1-39.1-87.2-87.2-87.2h-78.7c-11.1,0-20.4-7.9-22.2-18.9l-8-49c-2.7-16.2-16.5-28-33-28h-183c-16.4,0-30.3,11.8-33,28l-8,49c-1.8,10.9-11.1,18.9-22.2,18.9h-78.7Z"/>
          <path class="cls-38" d="M2583.4,2616.1h-466.9c-52.1,0-94.5-42.4-94.5-94.5v-247.4c0-52.1,42.4-94.5,94.5-94.5h78.7c7.5,0,13.8-5.4,15.1-12.8l8-49c3.2-19.7,20.1-34.1,40.1-34.1h183c20,0,36.9,14.3,40.1,34.1l8,49c1.2,7.4,7.5,12.8,15.1,12.8h78.7c52.1,0,94.5,42.4,94.5,94.5v247.4c0,52.1-42.4,94.5-94.5,94.5ZM2116.6,2182c-50.9,0-92.2,41.4-92.2,92.2v247.4c0,50.9,41.4,92.2,92.2,92.2h466.9c50.9,0,92.2-41.4,92.2-92.2v-247.4c0-50.9-41.4-92.2-92.2-92.2h-78.7c-8.6,0-15.9-6.2-17.3-14.7l-8-49c-3.1-18.6-19-32.2-37.9-32.2h-183c-18.9,0-34.8,13.5-37.9,32.2l-8,49c-1.4,8.5-8.7,14.7-17.3,14.7h-78.7Z"/>
        </g>
        <path class="cls-38" d="M2350,2238c-85.4,0-154.7,69.2-154.7,154.7s69.2,154.7,154.7,154.7,154.7-69.2,154.7-154.7-69.2-154.7-154.7-154.7ZM2350,2438.7c-25.4,0-46.1-20.6-46.1-46.1s20.6-46.1,46.1-46.1,46.1,20.6,46.1,46.1-20.6,46.1-46.1,46.1Z"/>
      </g>
    </g>
  </g>
  <g id="Icon_5" data-name="Icon 5">
    <g id="Graphic_Element-8" data-name="Graphic Element">
      <g>
        <path class="cls-11" d="M971.8,2464.5h-5.2c-9.4,0-17-7.6-17-17v-170.4c0-91.9-62.1-169.3-146.6-192.5.3-2.3.5-4.7.5-7.1,0-29.5-23.9-53.5-53.5-53.5s-53.5,23.9-53.5,53.5.2,4.8.5,7.1c-84.5,23.2-146.6,100.6-146.6,192.5v170.4c0,9.4-7.6,17-17,17h-5.2c-33.6,0-60.9,27.3-60.9,60.9h0c0,33.6,27.3,60.9,60.9,60.9h443.5c33.6,0,60.9-27.3,60.9-60.9h0c0-33.6-27.3-60.9-60.9-60.9Z"/>
        <g>
          <path class="cls-38" d="M528.2,2592.3c-36.9,0-66.8-30-66.8-66.8s30-66.8,66.8-66.8h5.2c6.1,0,11-4.9,11-11v-170.4c0-90.5,59.9-170.9,146.2-196.9,0-.9,0-1.8,0-2.8,0-32.8,26.7-59.5,59.5-59.5s59.5,26.7,59.5,59.5,0,1.8,0,2.8c86.3,26,146.2,106.4,146.2,196.9v170.4c0,6.1,4.9,11,11,11h5.2c36.9,0,66.8,30,66.8,66.8s-30,66.8-66.8,66.8h-443.5ZM528.2,2470.5c-30.3,0-54.9,24.6-54.9,54.9s24.6,54.9,54.9,54.9h443.5c30.3,0,54.9-24.6,54.9-54.9s-24.6-54.9-54.9-54.9h-5.2c-12.7,0-23-10.3-23-23v-170.4c0-86.9-58.5-163.7-142.2-186.7l-5-1.4.7-5.2c.3-2.2.4-4.3.4-6.3,0-26.2-21.3-47.5-47.5-47.5s-47.5,21.3-47.5,47.5.1,4.2.4,6.3l.7,5.2-5,1.4c-83.7,23-142.2,99.8-142.2,186.7v170.4c0,12.7-10.3,23-23,23h-5.2Z"/>
          <path class="cls-38" d="M971.8,2587.3h-443.5c-34.1,0-61.8-27.7-61.8-61.8s27.7-61.8,61.8-61.8h5.2c8.8,0,16-7.2,16-16v-170.4c0-89.8,60.2-169.1,146.5-193.2-.3-2.2-.4-4.3-.4-6.4,0-30,24.4-54.5,54.5-54.5s54.5,24.4,54.5,54.5-.1,4.2-.4,6.4c86.3,24.1,146.5,103.4,146.5,193.2v170.4c0,8.8,7.2,16,16,16h5.2c34.1,0,61.8,27.7,61.8,61.8s-27.7,61.8-61.8,61.8ZM528.2,2465.5c-33,0-59.9,26.9-59.9,59.9s26.9,59.9,59.9,59.9h443.5c33,0,59.9-26.9,59.9-59.9s-26.9-59.9-59.9-59.9h-5.2c-9.9,0-18-8.1-18-18v-170.4c0-89.2-60-168-145.9-191.6l-.8-.2v-.8c.4-2.4.6-4.7.6-7,0-29-23.6-52.5-52.5-52.5s-52.5,23.6-52.5,52.5.2,4.6.5,7v.8c.1,0-.7.2-.7.2-85.9,23.6-145.9,102.4-145.9,191.6v170.4c0,9.9-8.1,18-18,18h-5.2Z"/>
        </g>
        <path class="cls-2" d="M981.6,2433.1v-155.9c0-51.8-16.7-100.7-48.3-141.6-25.7-33.3-60.5-59.1-99.4-74.3-7.6-39.4-42.4-69.2-83.9-69.2s-76.3,29.8-83.9,69.2c-38.9,15.2-73.7,41-99.4,74.3-31.6,40.9-48.3,89.8-48.3,141.6v155.9c-46.6,4.9-83,44.5-83,92.4s41.7,92.9,92.9,92.9h104.4c14.1,51.6,61.4,89.7,117.4,89.7s103.3-38.1,117.4-89.7h104.4c51.2,0,92.9-41.7,92.9-92.9s-36.4-87.4-83-92.4Z"/>
        <path class="cls-38" d="M839.7,2586.3c0,49.5-40.1,89.7-89.7,89.7s-89.7-40.1-89.7-89.7h179.3Z"/>
        <g>
          <path class="cls-38" d="M750,2681.9c-52.7,0-95.6-42.9-95.6-95.6v-6h191.3v6c0,52.7-42.9,95.6-95.6,95.6ZM666.5,2592.3c3.1,43.3,39.5,77.7,83.5,77.7s80.4-34.4,83.5-77.7h-167Z"/>
          <path class="cls-38" d="M750,2676.9c-50,0-90.6-40.7-90.6-90.6v-1h181.3v1c0,50-40.7,90.6-90.6,90.6ZM661.3,2587.3c.5,48.5,40.1,87.7,88.7,87.7s88.2-39.3,88.7-87.7h-177.4Z"/>
        </g>
      </g>
    </g>
  </g>
  <g id="Icon_4" data-name="Icon 4">
    <g id="Graphic_Element-9" data-name="Graphic Element">
      <path class="cls-38" d="M-1031,2466.9c-57.8,0-104.8,47-104.8,104.8s47,104.8,104.8,104.8,104.8-47,104.8-104.8-47-104.8-104.8-104.8Z"/>
      <path class="cls-38" d="M-669,2384.3c-57.8,0-104.8,47-104.8,104.8s47,104.8,104.8,104.8,104.8-47,104.8-104.8-47-104.8-104.8-104.8Z"/>
      <g>
        <g>
          <path class="cls-38" d="M-1031,2682.4c-61.1,0-110.7-49.7-110.7-110.7s49.7-110.7,110.7-110.7,110.7,49.7,110.7,110.7-49.7,110.7-110.7,110.7ZM-1031,2472.9c-54.5,0-98.8,44.3-98.8,98.8s44.3,98.8,98.8,98.8,98.8-44.3,98.8-98.8-44.3-98.8-98.8-98.8Z"/>
          <path class="cls-38" d="M-1031,2677.4c-58.3,0-105.7-47.4-105.7-105.7s47.4-105.7,105.7-105.7,105.7,47.4,105.7,105.7-47.4,105.7-105.7,105.7ZM-1031,2467.9c-57.2,0-103.8,46.6-103.8,103.8s46.6,103.8,103.8,103.8,103.8-46.6,103.8-103.8-46.6-103.8-103.8-103.8Z"/>
        </g>
        <g>
          <path class="cls-38" d="M-669,2599.8c-61.1,0-110.7-49.7-110.7-110.7s49.7-110.7,110.7-110.7,110.7,49.7,110.7,110.7-49.7,110.7-110.7,110.7ZM-669,2390.2c-54.5,0-98.8,44.3-98.8,98.8s44.3,98.8,98.8,98.8,98.8-44.3,98.8-98.8-44.3-98.8-98.8-98.8Z"/>
          <path class="cls-38" d="M-669,2594.8c-58.3,0-105.7-47.4-105.7-105.7s47.4-105.7,105.7-105.7,105.7,47.4,105.7,105.7-47.4,105.7-105.7,105.7ZM-669,2385.2c-57.2,0-103.8,46.6-103.8,103.8s46.6,103.8,103.8,103.8,103.8-46.6,103.8-103.8-46.6-103.8-103.8-103.8Z"/>
        </g>
      </g>
      <path class="cls-1" d="M-611.3,1991.6c-9.3,0-18.4,1.6-27.2,4.8l-310.6,113.4c-50.1,18.3-83.8,66.4-83.8,119.7v205.3c-74.5,1-134.8,62-134.8,136.8s61.4,136.8,136.8,136.8,133.5-58.1,136.6-130.8h.1v-232.3l223.8-71.2v78.1c-74.7.8-135.2,61.9-135.2,136.8s61.4,136.8,136.8,136.8,136.8-61.4,136.8-136.8v-418.2c0-43.7-35.5-79.3-79.2-79.3Z"/>
      <path class="cls-14" d="M-926.3,2571.7v-245.6c0-2.4,1.6-4.6,3.9-5.3l276.6-88c3.6-1.1,7.3,1.5,7.3,5.3v251h74.3v-418.2c0-32.8-32.6-55.6-63.4-44.4l-310.6,113.4c-37.7,13.8-62.7,49.6-62.7,89.7v342.1h74.7Z"/>
      <g>
        <path class="cls-38" d="M-1007,2577.6v-348c0-42.4,26.8-80.7,66.7-95.3l310.6-113.4c6-2.2,12.2-3.3,18.4-3.3,10.8,0,21.3,3.3,30.3,9.7,14.4,10.1,22.7,26,22.7,43.6v418.2l-86.3,6v-256.4l-275.8,87.8v245.3l-86.7,6ZM-932.2,2565.7v-239.6c0-5.1,3.2-9.5,8.1-11l276.6-88c1.1-.4,2.3-.6,3.5-.6,2.5,0,4.8.8,6.8,2.2,3,2.2,4.7,5.6,4.7,9.3v245h62.4v-412.2c0-13.7-6.4-26-17.6-33.8-7-4.9-15.1-7.5-23.5-7.5s-9.6.9-14.3,2.6l-310.6,113.4c-35.2,12.8-58.8,46.6-58.8,84.1v336.1h62.8Z"/>
        <path class="cls-38" d="M-925.3,2572.6h-76.7v-343c0-40.4,25.5-76.8,63.4-90.6l310.6-113.4c15-5.5,31.1-3.4,44.1,5.8,13.1,9.1,20.6,23.5,20.6,39.5v419.2h-76.3v-252c0-1.5-.7-2.8-1.9-3.7-1.2-.9-2.7-1.1-4.1-.7l-276.6,88c-1.9.6-3.2,2.4-3.2,4.4v246.6ZM-1000,2570.7h72.8v-244.6c0-2.9,1.8-5.4,4.6-6.2l276.6-88c2-.6,4.2-.3,5.9,1,1.7,1.2,2.7,3.2,2.7,5.3v250h72.4v-417.2c0-15.3-7.2-29.1-19.7-37.9-12.5-8.8-28-10.8-42.4-5.5l-310.6,113.4c-37.1,13.6-62.1,49.2-62.1,88.8v341.1Z"/>
      </g>
    </g>
  </g>
  <g id="Icon_3" data-name="Icon 3">
    <g id="Graphic_Element-10" data-name="Graphic Element">
      <g>
        <rect class="cls-3" x="1990.9" y="539.2" width="718.1" height="421.6" rx="101.6" ry="101.6" transform="translate(3100 -1600) rotate(90)"/>
        <rect class="cls-8" x="2171.2" y="422.9" width="357.6" height="654.1" rx="69.6" ry="69.6"/>
        <rect class="cls-37" x="2084.9" y="586.7" width="530.3" height="280.2" rx="26.9" ry="26.9" transform="translate(3076.8 -1623.2) rotate(90)"/>
        <path class="cls-38" d="M2463,992.8h-226.1c-15.4,0-27.9-12.5-27.9-27.9v-476.2c0-15.4,12.5-27.9,27.9-27.9h226.1c15.4,0,27.9,12.5,27.9,27.9v476.2c0,15.4-12.5,27.9-27.9,27.9ZM2237,462.5c-14.4,0-26.2,11.7-26.2,26.2v476.2c0,14.4,11.7,26.2,26.2,26.2h226.1c14.4,0,26.2-11.7,26.2-26.2v-476.2c0-14.4-11.7-26.2-26.2-26.2h-226.1Z"/>
        <g>
          <path class="cls-38" d="M2241,1082.9c-41.7,0-75.7-34-75.7-75.7V492.8c0-41.7,34-75.7,75.7-75.7h217.9c41.7,0,75.7,34,75.7,75.7v514.5c0,41.7-34,75.7-75.7,75.7h-217.9ZM2241,428.8c-35.3,0-64,28.7-64,64v514.5c0,35.3,28.7,64,64,64h217.9c35.3,0,64-28.7,64-64V492.8c0-35.3-28.7-64-64-64h-217.9Z"/>
          <path class="cls-38" d="M2459,1077.9h-217.9c-39,0-70.7-31.7-70.7-70.7V492.8c0-39,31.7-70.7,70.7-70.7h217.9c39,0,70.7,31.7,70.7,70.7v514.5c0,39-31.7,70.7-70.7,70.7ZM2241,423.8c-38,0-69,30.9-69,69v514.5c0,38,30.9,69,69,69h217.9c38,0,69-30.9,69-69V492.8c0-38-30.9-69-69-69h-217.9Z"/>
        </g>
        <path class="cls-38" d="M2387.5,1036.9h-75c-2.4,0-4.3-1.9-4.3-4.3s1.9-4.3,4.3-4.3h75c2.4,0,4.3,1.9,4.3,4.3s-1.9,4.3-4.3,4.3Z"/>
      </g>
    </g>
  </g>
  <g id="Icon_1" data-name="Icon 1">
    <g>
      <rect class="cls-27" x="515.6" y="488.7" width="559.3" height="0"/>
      <rect class="cls-27" x="503.2" y="868.9" width="571.8" height="42.3" rx="3.5" ry="3.5"/>
      <rect class="cls-27" x="503.2" y="667.7" width="571.8" height="42.3" rx="2.2" ry="2.2"/>
      <rect class="cls-27" x="503.2" y="467.5" width="571.8" height="42.3" rx="1.4" ry="1.4"/>
    </g>
    <g>
      <rect class="cls-27" x="-1157.3" y="675.7" width="485.2" height="39.4" rx="-93.4" ry="-93.4" transform="translate(-1069.7 1833.9) rotate(135)"/>
      <rect class="cls-27" x="-1150.7" y="669.2" width="485.2" height="39.4" rx="-90.1" ry="-90.1" transform="translate(-2037.3 533.8) rotate(-135)"/>
    </g>
  </g>
</svg>